G04 EAGLE Gerber RS-274X export*
G75*
%MOMM*%
%FSLAX34Y34*%
%LPD*%
%INSolderpaste Top*%
%IPPOS*%
%AMOC8*
5,1,8,0,0,1.08239X$1,22.5*%
G01*
G04 Define Apertures*
%ADD10R,1.092200X2.692400*%
%ADD11R,1.199200X0.652400*%
%ADD12R,0.652400X1.549200*%
%ADD13R,0.749200X0.452400*%
%ADD14R,0.401600X0.499200*%
%ADD15R,0.660400X0.838200*%
%ADD16R,1.574800X1.625600*%
%ADD17R,1.625600X1.574800*%
%ADD18R,0.800000X0.800000*%
%ADD19R,1.100000X1.200000*%
%ADD20R,2.159000X0.965200*%
%ADD21R,5.689600X1.600200*%
%ADD22R,0.711200X0.838200*%
%ADD23R,0.838200X0.711200*%
%ADD24R,0.902400X1.549200*%
%ADD25R,0.914400X1.701800*%
%ADD26R,1.701800X0.914400*%
%ADD27R,1.549200X0.902400*%
%ADD28R,0.508000X0.508000*%
%ADD29R,0.889000X1.397000*%
%ADD30R,0.673100X0.457200*%
%ADD31R,0.449200X0.402400*%
%ADD32R,0.965200X0.508000*%
%ADD33R,0.508000X0.965200*%
%ADD34R,0.609600X0.254000*%
%ADD35R,0.711200X1.295400*%
%ADD36R,3.400000X1.850000*%
%ADD37R,0.838200X0.660400*%
%ADD38R,0.914400X1.549400*%
%ADD39R,1.549200X0.652400*%
%ADD40R,1.640000X1.640000*%
%ADD41C,0.067500*%
%ADD42R,0.860000X1.820000*%
%ADD43R,2.500000X1.400000*%
%ADD44R,1.650000X0.600000*%
%ADD45R,0.652400X1.199200*%
D10*
X1212215Y96901D03*
X1212215Y149987D03*
D11*
X784262Y286983D03*
X784262Y303507D03*
D12*
X742023Y328041D03*
X770547Y328041D03*
D13*
X736480Y166248D03*
X736480Y180772D03*
D14*
X780692Y189732D03*
X772176Y189732D03*
D11*
X837761Y155502D03*
X837761Y172026D03*
X856805Y155558D03*
X856805Y172082D03*
X808016Y136024D03*
X808016Y119500D03*
D15*
X758782Y187154D03*
X745320Y187154D03*
D16*
X599131Y197251D03*
X642311Y197251D03*
X711073Y197485D03*
X667893Y197485D03*
D17*
X1193292Y698627D03*
X1193292Y741807D03*
X1193419Y625221D03*
X1193419Y668401D03*
X1267079Y509651D03*
X1267079Y552831D03*
X1206627Y407035D03*
X1206627Y450215D03*
X1205230Y341376D03*
X1205230Y384556D03*
X694817Y507111D03*
X694817Y550291D03*
X646684Y446786D03*
X646684Y489966D03*
D16*
X643396Y354800D03*
X600216Y354800D03*
D18*
X1249679Y245745D03*
X1233679Y245745D03*
D19*
X1156929Y239807D03*
X1135929Y239807D03*
D20*
X716915Y310261D03*
X716915Y273939D03*
D21*
X831856Y187149D03*
X831856Y234139D03*
D22*
X1117092Y685673D03*
X1104138Y685673D03*
D23*
X704342Y234188D03*
X704342Y247142D03*
D22*
X739648Y85598D03*
X726694Y85598D03*
X1117600Y615442D03*
X1104646Y615442D03*
X1219581Y553847D03*
X1232535Y553847D03*
X1129030Y401574D03*
X1116076Y401574D03*
X1128268Y335026D03*
X1115314Y335026D03*
D23*
X763221Y555879D03*
X763221Y542925D03*
D22*
X730631Y489968D03*
X717677Y489968D03*
X616006Y410465D03*
X603052Y410465D03*
D23*
X594732Y282566D03*
X594732Y295520D03*
D24*
X1118801Y636905D03*
X1092777Y636905D03*
D25*
X1238885Y596647D03*
X1211453Y596647D03*
D24*
X1238181Y573405D03*
X1212157Y573405D03*
D25*
X1130173Y686562D03*
X1157605Y686562D03*
X1130173Y623183D03*
X1157605Y623183D03*
X1215113Y534283D03*
X1242545Y534283D03*
X1132205Y443865D03*
X1104773Y443865D03*
D24*
X1131501Y421005D03*
X1105477Y421005D03*
D25*
X1142873Y407283D03*
X1170305Y407283D03*
X1132205Y381762D03*
X1104773Y381762D03*
X1147953Y336163D03*
X1175385Y336163D03*
D24*
X1131501Y359285D03*
X1105477Y359285D03*
D26*
X784860Y542417D03*
X784860Y569849D03*
X732028Y568960D03*
X732028Y596392D03*
X677672Y569595D03*
X677672Y597027D03*
X625094Y567436D03*
X625094Y594868D03*
X628904Y507746D03*
X628904Y535178D03*
X759714Y528828D03*
X759714Y501396D03*
D27*
X782574Y528124D03*
X782574Y502100D03*
D25*
X747092Y550652D03*
X719660Y550652D03*
D26*
X759714Y489458D03*
X759714Y462026D03*
D27*
X782574Y488355D03*
X782574Y462331D03*
D25*
X733552Y467975D03*
X706120Y467975D03*
D26*
X640334Y423418D03*
X640334Y395986D03*
D27*
X663194Y422714D03*
X663194Y396690D03*
D25*
X623626Y429169D03*
X596194Y429169D03*
X616712Y266065D03*
X644144Y266065D03*
D24*
X617135Y288975D03*
X643159Y288975D03*
D26*
X594243Y269905D03*
X594243Y242473D03*
D25*
X686689Y265430D03*
X659257Y265430D03*
D24*
X685604Y288290D03*
X659580Y288290D03*
D26*
X728224Y226949D03*
X728224Y254381D03*
D25*
X1119505Y729424D03*
X1092073Y729424D03*
D26*
X1256919Y196469D03*
X1256919Y223901D03*
X1159510Y190119D03*
X1159510Y217551D03*
X1135888Y217170D03*
X1135888Y189738D03*
X1231519Y223901D03*
X1231519Y196469D03*
D24*
X1119565Y706564D03*
X1093541Y706564D03*
D28*
X748947Y91412D03*
X748947Y99286D03*
D26*
X731901Y97409D03*
X731901Y124841D03*
D25*
X787591Y87975D03*
X760159Y87975D03*
X787591Y112157D03*
X760159Y112157D03*
X1119505Y659765D03*
X1092073Y659765D03*
D29*
X798875Y94621D03*
X863875Y94621D03*
D30*
X770445Y290220D03*
X770445Y299720D03*
X770445Y309220D03*
X746189Y309220D03*
X746189Y290220D03*
D31*
X786003Y588204D03*
X786003Y579180D03*
X729702Y605850D03*
X729702Y614874D03*
X678434Y614874D03*
X678434Y605850D03*
X625094Y612334D03*
X625094Y603310D03*
X628904Y553914D03*
X628904Y544890D03*
D32*
X1147445Y724795D03*
X1147445Y706495D03*
X1165733Y715645D03*
X1160145Y447935D03*
X1160145Y429635D03*
X1178433Y438785D03*
X1147705Y661295D03*
X1147705Y642995D03*
X1165993Y652145D03*
X1256367Y595203D03*
X1256367Y576903D03*
X1274655Y586053D03*
X1160145Y384435D03*
X1160145Y366135D03*
X1178433Y375285D03*
X739648Y508502D03*
X739648Y526802D03*
X721360Y517652D03*
X690753Y468477D03*
X690753Y486777D03*
X672465Y477627D03*
D33*
X619090Y396683D03*
X600790Y396683D03*
X609940Y378395D03*
X681488Y244983D03*
X663188Y244983D03*
X672338Y226695D03*
D32*
X621538Y244735D03*
X621538Y226435D03*
X639826Y235585D03*
D34*
X1180211Y766565D03*
X1180211Y771565D03*
X1180211Y776565D03*
X1180211Y781565D03*
X1162177Y781565D03*
X1162177Y776565D03*
X1162177Y771565D03*
X1162177Y766565D03*
D35*
X1171194Y774065D03*
D36*
X1236599Y818028D03*
X1236599Y762528D03*
D13*
X1169924Y800458D03*
X1169924Y814982D03*
D37*
X1182624Y799719D03*
X1182624Y813181D03*
D38*
X1132713Y794385D03*
X1106805Y794385D03*
D39*
X1133729Y748373D03*
X1133729Y776897D03*
X1110869Y748373D03*
X1110869Y776897D03*
D25*
X1133475Y817626D03*
X1106043Y817626D03*
D40*
X769874Y151384D03*
D41*
X758387Y128071D02*
X756361Y128071D01*
X756361Y135997D01*
X758387Y135997D01*
X758387Y128071D01*
X758387Y128712D02*
X756361Y128712D01*
X756361Y129353D02*
X758387Y129353D01*
X758387Y129994D02*
X756361Y129994D01*
X756361Y130635D02*
X758387Y130635D01*
X758387Y131276D02*
X756361Y131276D01*
X756361Y131917D02*
X758387Y131917D01*
X758387Y132558D02*
X756361Y132558D01*
X756361Y133199D02*
X758387Y133199D01*
X758387Y133840D02*
X756361Y133840D01*
X756361Y134481D02*
X758387Y134481D01*
X758387Y135122D02*
X756361Y135122D01*
X756361Y135763D02*
X758387Y135763D01*
X761361Y128071D02*
X763387Y128071D01*
X761361Y128071D02*
X761361Y135997D01*
X763387Y135997D01*
X763387Y128071D01*
X763387Y128712D02*
X761361Y128712D01*
X761361Y129353D02*
X763387Y129353D01*
X763387Y129994D02*
X761361Y129994D01*
X761361Y130635D02*
X763387Y130635D01*
X763387Y131276D02*
X761361Y131276D01*
X761361Y131917D02*
X763387Y131917D01*
X763387Y132558D02*
X761361Y132558D01*
X761361Y133199D02*
X763387Y133199D01*
X763387Y133840D02*
X761361Y133840D01*
X761361Y134481D02*
X763387Y134481D01*
X763387Y135122D02*
X761361Y135122D01*
X761361Y135763D02*
X763387Y135763D01*
X766361Y128071D02*
X768387Y128071D01*
X766361Y128071D02*
X766361Y135997D01*
X768387Y135997D01*
X768387Y128071D01*
X768387Y128712D02*
X766361Y128712D01*
X766361Y129353D02*
X768387Y129353D01*
X768387Y129994D02*
X766361Y129994D01*
X766361Y130635D02*
X768387Y130635D01*
X768387Y131276D02*
X766361Y131276D01*
X766361Y131917D02*
X768387Y131917D01*
X768387Y132558D02*
X766361Y132558D01*
X766361Y133199D02*
X768387Y133199D01*
X768387Y133840D02*
X766361Y133840D01*
X766361Y134481D02*
X768387Y134481D01*
X768387Y135122D02*
X766361Y135122D01*
X766361Y135763D02*
X768387Y135763D01*
X771361Y128071D02*
X773387Y128071D01*
X771361Y128071D02*
X771361Y135997D01*
X773387Y135997D01*
X773387Y128071D01*
X773387Y128712D02*
X771361Y128712D01*
X771361Y129353D02*
X773387Y129353D01*
X773387Y129994D02*
X771361Y129994D01*
X771361Y130635D02*
X773387Y130635D01*
X773387Y131276D02*
X771361Y131276D01*
X771361Y131917D02*
X773387Y131917D01*
X773387Y132558D02*
X771361Y132558D01*
X771361Y133199D02*
X773387Y133199D01*
X773387Y133840D02*
X771361Y133840D01*
X771361Y134481D02*
X773387Y134481D01*
X773387Y135122D02*
X771361Y135122D01*
X771361Y135763D02*
X773387Y135763D01*
X776361Y128071D02*
X778387Y128071D01*
X776361Y128071D02*
X776361Y135997D01*
X778387Y135997D01*
X778387Y128071D01*
X778387Y128712D02*
X776361Y128712D01*
X776361Y129353D02*
X778387Y129353D01*
X778387Y129994D02*
X776361Y129994D01*
X776361Y130635D02*
X778387Y130635D01*
X778387Y131276D02*
X776361Y131276D01*
X776361Y131917D02*
X778387Y131917D01*
X778387Y132558D02*
X776361Y132558D01*
X776361Y133199D02*
X778387Y133199D01*
X778387Y133840D02*
X776361Y133840D01*
X776361Y134481D02*
X778387Y134481D01*
X778387Y135122D02*
X776361Y135122D01*
X776361Y135763D02*
X778387Y135763D01*
X781361Y128071D02*
X783387Y128071D01*
X781361Y128071D02*
X781361Y135997D01*
X783387Y135997D01*
X783387Y128071D01*
X783387Y128712D02*
X781361Y128712D01*
X781361Y129353D02*
X783387Y129353D01*
X783387Y129994D02*
X781361Y129994D01*
X781361Y130635D02*
X783387Y130635D01*
X783387Y131276D02*
X781361Y131276D01*
X781361Y131917D02*
X783387Y131917D01*
X783387Y132558D02*
X781361Y132558D01*
X781361Y133199D02*
X783387Y133199D01*
X783387Y133840D02*
X781361Y133840D01*
X781361Y134481D02*
X783387Y134481D01*
X783387Y135122D02*
X781361Y135122D01*
X781361Y135763D02*
X783387Y135763D01*
X783387Y166771D02*
X781361Y166771D01*
X781361Y174697D01*
X783387Y174697D01*
X783387Y166771D01*
X783387Y167412D02*
X781361Y167412D01*
X781361Y168053D02*
X783387Y168053D01*
X783387Y168694D02*
X781361Y168694D01*
X781361Y169335D02*
X783387Y169335D01*
X783387Y169976D02*
X781361Y169976D01*
X781361Y170617D02*
X783387Y170617D01*
X783387Y171258D02*
X781361Y171258D01*
X781361Y171899D02*
X783387Y171899D01*
X783387Y172540D02*
X781361Y172540D01*
X781361Y173181D02*
X783387Y173181D01*
X783387Y173822D02*
X781361Y173822D01*
X781361Y174463D02*
X783387Y174463D01*
X778387Y166771D02*
X776361Y166771D01*
X776361Y174697D01*
X778387Y174697D01*
X778387Y166771D01*
X778387Y167412D02*
X776361Y167412D01*
X776361Y168053D02*
X778387Y168053D01*
X778387Y168694D02*
X776361Y168694D01*
X776361Y169335D02*
X778387Y169335D01*
X778387Y169976D02*
X776361Y169976D01*
X776361Y170617D02*
X778387Y170617D01*
X778387Y171258D02*
X776361Y171258D01*
X776361Y171899D02*
X778387Y171899D01*
X778387Y172540D02*
X776361Y172540D01*
X776361Y173181D02*
X778387Y173181D01*
X778387Y173822D02*
X776361Y173822D01*
X776361Y174463D02*
X778387Y174463D01*
X773387Y166771D02*
X771361Y166771D01*
X771361Y174697D01*
X773387Y174697D01*
X773387Y166771D01*
X773387Y167412D02*
X771361Y167412D01*
X771361Y168053D02*
X773387Y168053D01*
X773387Y168694D02*
X771361Y168694D01*
X771361Y169335D02*
X773387Y169335D01*
X773387Y169976D02*
X771361Y169976D01*
X771361Y170617D02*
X773387Y170617D01*
X773387Y171258D02*
X771361Y171258D01*
X771361Y171899D02*
X773387Y171899D01*
X773387Y172540D02*
X771361Y172540D01*
X771361Y173181D02*
X773387Y173181D01*
X773387Y173822D02*
X771361Y173822D01*
X771361Y174463D02*
X773387Y174463D01*
X768387Y166771D02*
X766361Y166771D01*
X766361Y174697D01*
X768387Y174697D01*
X768387Y166771D01*
X768387Y167412D02*
X766361Y167412D01*
X766361Y168053D02*
X768387Y168053D01*
X768387Y168694D02*
X766361Y168694D01*
X766361Y169335D02*
X768387Y169335D01*
X768387Y169976D02*
X766361Y169976D01*
X766361Y170617D02*
X768387Y170617D01*
X768387Y171258D02*
X766361Y171258D01*
X766361Y171899D02*
X768387Y171899D01*
X768387Y172540D02*
X766361Y172540D01*
X766361Y173181D02*
X768387Y173181D01*
X768387Y173822D02*
X766361Y173822D01*
X766361Y174463D02*
X768387Y174463D01*
X763387Y166771D02*
X761361Y166771D01*
X761361Y174697D01*
X763387Y174697D01*
X763387Y166771D01*
X763387Y167412D02*
X761361Y167412D01*
X761361Y168053D02*
X763387Y168053D01*
X763387Y168694D02*
X761361Y168694D01*
X761361Y169335D02*
X763387Y169335D01*
X763387Y169976D02*
X761361Y169976D01*
X761361Y170617D02*
X763387Y170617D01*
X763387Y171258D02*
X761361Y171258D01*
X761361Y171899D02*
X763387Y171899D01*
X763387Y172540D02*
X761361Y172540D01*
X761361Y173181D02*
X763387Y173181D01*
X763387Y173822D02*
X761361Y173822D01*
X761361Y174463D02*
X763387Y174463D01*
X758387Y166771D02*
X756361Y166771D01*
X756361Y174697D01*
X758387Y174697D01*
X758387Y166771D01*
X758387Y167412D02*
X756361Y167412D01*
X756361Y168053D02*
X758387Y168053D01*
X758387Y168694D02*
X756361Y168694D01*
X756361Y169335D02*
X758387Y169335D01*
X758387Y169976D02*
X756361Y169976D01*
X756361Y170617D02*
X758387Y170617D01*
X758387Y171258D02*
X756361Y171258D01*
X756361Y171899D02*
X758387Y171899D01*
X758387Y172540D02*
X756361Y172540D01*
X756361Y173181D02*
X758387Y173181D01*
X758387Y173822D02*
X756361Y173822D01*
X756361Y174463D02*
X758387Y174463D01*
X754487Y162871D02*
X746561Y162871D01*
X746561Y164897D01*
X754487Y164897D01*
X754487Y162871D01*
X754487Y163512D02*
X746561Y163512D01*
X746561Y164153D02*
X754487Y164153D01*
X754487Y164794D02*
X746561Y164794D01*
X746561Y157871D02*
X754487Y157871D01*
X746561Y157871D02*
X746561Y159897D01*
X754487Y159897D01*
X754487Y157871D01*
X754487Y158512D02*
X746561Y158512D01*
X746561Y159153D02*
X754487Y159153D01*
X754487Y159794D02*
X746561Y159794D01*
X746561Y152871D02*
X754487Y152871D01*
X746561Y152871D02*
X746561Y154897D01*
X754487Y154897D01*
X754487Y152871D01*
X754487Y153512D02*
X746561Y153512D01*
X746561Y154153D02*
X754487Y154153D01*
X754487Y154794D02*
X746561Y154794D01*
X746561Y147871D02*
X754487Y147871D01*
X746561Y147871D02*
X746561Y149897D01*
X754487Y149897D01*
X754487Y147871D01*
X754487Y148512D02*
X746561Y148512D01*
X746561Y149153D02*
X754487Y149153D01*
X754487Y149794D02*
X746561Y149794D01*
X746561Y142871D02*
X754487Y142871D01*
X746561Y142871D02*
X746561Y144897D01*
X754487Y144897D01*
X754487Y142871D01*
X754487Y143512D02*
X746561Y143512D01*
X746561Y144153D02*
X754487Y144153D01*
X754487Y144794D02*
X746561Y144794D01*
X746561Y137871D02*
X754487Y137871D01*
X746561Y137871D02*
X746561Y139897D01*
X754487Y139897D01*
X754487Y137871D01*
X754487Y138512D02*
X746561Y138512D01*
X746561Y139153D02*
X754487Y139153D01*
X754487Y139794D02*
X746561Y139794D01*
X785261Y137871D02*
X793187Y137871D01*
X785261Y137871D02*
X785261Y139897D01*
X793187Y139897D01*
X793187Y137871D01*
X793187Y138512D02*
X785261Y138512D01*
X785261Y139153D02*
X793187Y139153D01*
X793187Y139794D02*
X785261Y139794D01*
X785261Y142871D02*
X793187Y142871D01*
X785261Y142871D02*
X785261Y144897D01*
X793187Y144897D01*
X793187Y142871D01*
X793187Y143512D02*
X785261Y143512D01*
X785261Y144153D02*
X793187Y144153D01*
X793187Y144794D02*
X785261Y144794D01*
X785261Y147871D02*
X793187Y147871D01*
X785261Y147871D02*
X785261Y149897D01*
X793187Y149897D01*
X793187Y147871D01*
X793187Y148512D02*
X785261Y148512D01*
X785261Y149153D02*
X793187Y149153D01*
X793187Y149794D02*
X785261Y149794D01*
X785261Y152871D02*
X793187Y152871D01*
X785261Y152871D02*
X785261Y154897D01*
X793187Y154897D01*
X793187Y152871D01*
X793187Y153512D02*
X785261Y153512D01*
X785261Y154153D02*
X793187Y154153D01*
X793187Y154794D02*
X785261Y154794D01*
X785261Y157871D02*
X793187Y157871D01*
X785261Y157871D02*
X785261Y159897D01*
X793187Y159897D01*
X793187Y157871D01*
X793187Y158512D02*
X785261Y158512D01*
X785261Y159153D02*
X793187Y159153D01*
X793187Y159794D02*
X785261Y159794D01*
X785261Y162871D02*
X793187Y162871D01*
X785261Y162871D02*
X785261Y164897D01*
X793187Y164897D01*
X793187Y162871D01*
X793187Y163512D02*
X785261Y163512D01*
X785261Y164153D02*
X793187Y164153D01*
X793187Y164794D02*
X785261Y164794D01*
D31*
X1168527Y120837D03*
X1168527Y129861D03*
D42*
X1054495Y184531D03*
X1087995Y184531D03*
D43*
X609522Y802390D03*
X609522Y776990D03*
X609522Y675390D03*
X609522Y649990D03*
X764522Y649990D03*
X764522Y675390D03*
X764522Y802390D03*
D11*
X786257Y598290D03*
X786257Y614814D03*
X801495Y805761D03*
X801495Y822285D03*
D44*
X1098187Y573151D03*
X1098187Y560451D03*
X1098187Y547751D03*
X1098187Y535051D03*
X1098187Y522351D03*
X1098187Y509651D03*
X1098187Y496951D03*
X1098187Y484251D03*
X1195687Y484251D03*
X1195687Y496951D03*
X1195687Y509651D03*
X1195687Y522351D03*
X1195687Y535051D03*
X1195687Y547751D03*
X1195687Y560451D03*
X1195687Y573151D03*
X783445Y355854D03*
X783445Y368554D03*
X783445Y381254D03*
X783445Y393954D03*
X783445Y406654D03*
X783445Y419354D03*
X783445Y432054D03*
X783445Y444754D03*
X685945Y444754D03*
X685945Y432054D03*
X685945Y419354D03*
X685945Y406654D03*
X685945Y393954D03*
X685945Y381254D03*
X685945Y368554D03*
X685945Y355854D03*
D11*
X786857Y338462D03*
X786857Y321938D03*
X685800Y343542D03*
X685800Y327018D03*
D45*
X1110622Y591820D03*
X1094098Y591820D03*
X1194442Y591820D03*
X1177918Y591820D03*
M02*
