M48
;GenerationSoftware,Autodesk,EAGLE,9.7.0*%
;CreationDate,2024-10-28T19:47:27Z*%
FMAT,2
ICI,OFF
METRIC,TZ,000.000
T7C0.350
T6C0.650
T5C0.900
T4C1.000
T3C1.050
T2C1.100
T1C1.143
%
G90
M71
T1
X110242Y30531
X120104Y20765
X120104Y23304
X110242Y27991
X119983Y27495
X119983Y30035
X76715Y22836
X59874Y57614
X76715Y25376
X67640Y16192
X70180Y16192
X110242Y21826
X63309Y16167
X60769Y16167
X60922Y31893
X63462Y31893
X59988Y48307
X59988Y45767
X65835Y54090
X65835Y51550
X59930Y54307
X59930Y51767
X105880Y75629
X59874Y60154
X65085Y57852
X110242Y24366
X105880Y78169
X124549Y72581
X126741Y13634
X126741Y11094
X65085Y60392
X125819Y44132
X70472Y60369
X70472Y57829
X75794Y60335
X75794Y57795
X125819Y38037
X125819Y35497
X125819Y41593
X122771Y50482
X122771Y47942
X124549Y65468
X124549Y62928
X124549Y70041
T2
X69689Y9791
X67149Y9791
X64609Y9791
X62069Y9791
X113826Y10135
X113826Y14477
X111286Y14477
X108746Y14477
X111286Y10135
X108746Y10135
T3
X88944Y82360
X98882Y9341
X88944Y9341
X98882Y82360
T4
X115125Y81025
X95123Y76835
X115951Y74295
X60960Y81978
T5
X81369Y59093
X106769Y59093
X81369Y56553
X106769Y56553
X81369Y54013
X81369Y51473
X106769Y51473
X81369Y48933
X106769Y48933
X81369Y46393
X106769Y46393
X81369Y43853
X106769Y43853
X81369Y41314
X106769Y41314
X81369Y38774
X106769Y38774
X81369Y36234
X106769Y36234
X81369Y33694
X106769Y33694
X81369Y31153
X106769Y31153
X81369Y28613
X106769Y28613
X81369Y26073
X106769Y26073
X106769Y54013
X81369Y71794
X106769Y71794
X81369Y69254
X106769Y69254
X81369Y66714
X106769Y66714
X81369Y64173
X106769Y64173
X81369Y61633
X106769Y61633
T6
X70549Y12128
X72390Y16510
T7
X116967Y82296
X109474Y77597
X109220Y74549
X113538Y70612
X113538Y64135
X109220Y67691
X116840Y62230
X116713Y59182
X121158Y61214
X125095Y56769
X124333Y55118
X119507Y47498
X114808Y42545
X109347Y44323
X109347Y38100
X114808Y36576
X118237Y40640
X117602Y32004
X120904Y17018
X121793Y17018
X122682Y17018
X120015Y18034
X120904Y18034
X121793Y18034
X122682Y18034
X64389Y25019
X59944Y23241
X68580Y31750
X79375Y31242
X78486Y31242
X74422Y26035
X65278Y25019
X60833Y22606
X73470Y18860
X74168Y19812
X87693Y17272
X82042Y12382
X86995Y8128
X115697Y12446
X73139Y42431
X74460Y41110
X79743Y39459
X76937Y42596
X63894Y54813
X77584Y58560
X69012Y60757
X72149Y61087
X71819Y59601
X109537Y79968
X115379Y77851
X115338Y76752
X109537Y78677
X74994Y10985
X74270Y34176
X120015Y17018
X118300Y82233
X70866Y49530
X74232Y48450
X96418Y57290
X76656Y34261
X79743Y17005
X75883Y19812
X74422Y46164
X74295Y49720
X117094Y75756
X119570Y77470
X74915Y8319
X87693Y16406
X81788Y82169
X70866Y55880
X74422Y53594
X69469Y45783
X70168Y48704
X58620Y42863
X58801Y40069
X64008Y38608
X67056Y44450
M30