G04 EAGLE Gerber RS-274X export*
G75*
%MOMM*%
%FSLAX34Y34*%
%LPD*%
%INSilkscreen Bottom*%
%IPPOS*%
%AMOC8*
5,1,8,0,0,1.08239X$1,22.5*%
G01*
G04 Define Apertures*
%ADD10C,0.508000*%
D10*
X1267415Y171901D02*
X1267293Y171899D01*
X1267171Y171893D01*
X1267049Y171883D01*
X1266928Y171870D01*
X1266807Y171852D01*
X1266687Y171831D01*
X1266567Y171805D01*
X1266449Y171776D01*
X1266331Y171744D01*
X1266214Y171707D01*
X1266099Y171667D01*
X1265985Y171623D01*
X1265873Y171575D01*
X1265762Y171524D01*
X1265653Y171469D01*
X1265545Y171411D01*
X1265440Y171349D01*
X1265337Y171284D01*
X1265235Y171216D01*
X1265136Y171144D01*
X1265040Y171070D01*
X1264945Y170992D01*
X1264854Y170911D01*
X1264764Y170828D01*
X1264678Y170742D01*
X1264595Y170652D01*
X1264514Y170561D01*
X1264436Y170466D01*
X1264362Y170370D01*
X1264290Y170271D01*
X1264222Y170169D01*
X1264157Y170066D01*
X1264095Y169961D01*
X1264037Y169853D01*
X1263982Y169744D01*
X1263931Y169633D01*
X1263883Y169521D01*
X1263839Y169407D01*
X1263799Y169292D01*
X1263762Y169175D01*
X1263730Y169057D01*
X1263701Y168939D01*
X1263675Y168819D01*
X1263654Y168699D01*
X1263636Y168578D01*
X1263623Y168457D01*
X1263613Y168335D01*
X1263607Y168213D01*
X1263605Y168091D01*
X1263607Y167969D01*
X1263613Y167847D01*
X1263623Y167725D01*
X1263636Y167604D01*
X1263654Y167483D01*
X1263675Y167363D01*
X1263701Y167243D01*
X1263730Y167125D01*
X1263762Y167007D01*
X1263799Y166890D01*
X1263839Y166775D01*
X1263883Y166661D01*
X1263931Y166549D01*
X1263982Y166438D01*
X1264037Y166329D01*
X1264095Y166221D01*
X1264157Y166116D01*
X1264222Y166013D01*
X1264290Y165911D01*
X1264362Y165812D01*
X1264436Y165716D01*
X1264514Y165621D01*
X1264595Y165530D01*
X1264678Y165440D01*
X1264764Y165354D01*
X1264854Y165271D01*
X1264945Y165190D01*
X1265040Y165112D01*
X1265136Y165038D01*
X1265235Y164966D01*
X1265337Y164898D01*
X1265440Y164833D01*
X1265545Y164771D01*
X1265653Y164713D01*
X1265762Y164658D01*
X1265873Y164607D01*
X1265985Y164559D01*
X1266099Y164515D01*
X1266214Y164475D01*
X1266331Y164438D01*
X1266449Y164406D01*
X1266567Y164377D01*
X1266687Y164351D01*
X1266807Y164330D01*
X1266928Y164312D01*
X1267049Y164299D01*
X1267171Y164289D01*
X1267293Y164283D01*
X1267415Y164281D01*
X1267537Y164283D01*
X1267659Y164289D01*
X1267781Y164299D01*
X1267902Y164312D01*
X1268023Y164330D01*
X1268143Y164351D01*
X1268263Y164377D01*
X1268381Y164406D01*
X1268499Y164438D01*
X1268616Y164475D01*
X1268731Y164515D01*
X1268845Y164559D01*
X1268957Y164607D01*
X1269068Y164658D01*
X1269177Y164713D01*
X1269285Y164771D01*
X1269390Y164833D01*
X1269493Y164898D01*
X1269595Y164966D01*
X1269694Y165038D01*
X1269790Y165112D01*
X1269885Y165190D01*
X1269976Y165271D01*
X1270066Y165354D01*
X1270152Y165440D01*
X1270235Y165530D01*
X1270316Y165621D01*
X1270394Y165716D01*
X1270468Y165812D01*
X1270540Y165911D01*
X1270608Y166013D01*
X1270673Y166116D01*
X1270735Y166221D01*
X1270793Y166329D01*
X1270848Y166438D01*
X1270899Y166549D01*
X1270947Y166661D01*
X1270991Y166775D01*
X1271031Y166890D01*
X1271068Y167007D01*
X1271100Y167125D01*
X1271129Y167243D01*
X1271155Y167363D01*
X1271176Y167483D01*
X1271194Y167604D01*
X1271207Y167725D01*
X1271217Y167847D01*
X1271223Y167969D01*
X1271225Y168091D01*
X1271223Y168213D01*
X1271217Y168335D01*
X1271207Y168457D01*
X1271194Y168578D01*
X1271176Y168699D01*
X1271155Y168819D01*
X1271129Y168939D01*
X1271100Y169057D01*
X1271068Y169175D01*
X1271031Y169292D01*
X1270991Y169407D01*
X1270947Y169521D01*
X1270899Y169633D01*
X1270848Y169744D01*
X1270793Y169853D01*
X1270735Y169961D01*
X1270673Y170066D01*
X1270608Y170169D01*
X1270540Y170271D01*
X1270468Y170370D01*
X1270394Y170466D01*
X1270316Y170561D01*
X1270235Y170652D01*
X1270152Y170742D01*
X1270066Y170828D01*
X1269976Y170911D01*
X1269885Y170992D01*
X1269790Y171070D01*
X1269694Y171144D01*
X1269595Y171216D01*
X1269493Y171284D01*
X1269390Y171349D01*
X1269285Y171411D01*
X1269177Y171469D01*
X1269068Y171524D01*
X1268957Y171575D01*
X1268845Y171623D01*
X1268731Y171667D01*
X1268616Y171707D01*
X1268499Y171744D01*
X1268381Y171776D01*
X1268263Y171805D01*
X1268143Y171831D01*
X1268023Y171852D01*
X1267902Y171870D01*
X1267781Y171883D01*
X1267659Y171893D01*
X1267537Y171899D01*
X1267415Y171901D01*
X598735Y540576D02*
X598857Y540578D01*
X598979Y540584D01*
X599101Y540594D01*
X599222Y540607D01*
X599343Y540625D01*
X599463Y540646D01*
X599583Y540672D01*
X599701Y540701D01*
X599819Y540733D01*
X599936Y540770D01*
X600051Y540810D01*
X600165Y540854D01*
X600277Y540902D01*
X600388Y540953D01*
X600497Y541008D01*
X600605Y541066D01*
X600710Y541128D01*
X600813Y541193D01*
X600915Y541261D01*
X601014Y541333D01*
X601110Y541407D01*
X601205Y541485D01*
X601296Y541566D01*
X601386Y541649D01*
X601472Y541735D01*
X601555Y541825D01*
X601636Y541916D01*
X601714Y542011D01*
X601788Y542107D01*
X601860Y542206D01*
X601928Y542308D01*
X601993Y542411D01*
X602055Y542516D01*
X602113Y542624D01*
X602168Y542733D01*
X602219Y542844D01*
X602267Y542956D01*
X602311Y543070D01*
X602351Y543185D01*
X602388Y543302D01*
X602420Y543420D01*
X602449Y543538D01*
X602475Y543658D01*
X602496Y543778D01*
X602514Y543899D01*
X602527Y544020D01*
X602537Y544142D01*
X602543Y544264D01*
X602545Y544386D01*
X602543Y544508D01*
X602537Y544630D01*
X602527Y544752D01*
X602514Y544873D01*
X602496Y544994D01*
X602475Y545114D01*
X602449Y545234D01*
X602420Y545352D01*
X602388Y545470D01*
X602351Y545587D01*
X602311Y545702D01*
X602267Y545816D01*
X602219Y545928D01*
X602168Y546039D01*
X602113Y546148D01*
X602055Y546256D01*
X601993Y546361D01*
X601928Y546464D01*
X601860Y546566D01*
X601788Y546665D01*
X601714Y546761D01*
X601636Y546856D01*
X601555Y546947D01*
X601472Y547037D01*
X601386Y547123D01*
X601296Y547206D01*
X601205Y547287D01*
X601110Y547365D01*
X601014Y547439D01*
X600915Y547511D01*
X600813Y547579D01*
X600710Y547644D01*
X600605Y547706D01*
X600497Y547764D01*
X600388Y547819D01*
X600277Y547870D01*
X600165Y547918D01*
X600051Y547962D01*
X599936Y548002D01*
X599819Y548039D01*
X599701Y548071D01*
X599583Y548100D01*
X599463Y548126D01*
X599343Y548147D01*
X599222Y548165D01*
X599101Y548178D01*
X598979Y548188D01*
X598857Y548194D01*
X598735Y548196D01*
X598613Y548194D01*
X598491Y548188D01*
X598369Y548178D01*
X598248Y548165D01*
X598127Y548147D01*
X598007Y548126D01*
X597887Y548100D01*
X597769Y548071D01*
X597651Y548039D01*
X597534Y548002D01*
X597419Y547962D01*
X597305Y547918D01*
X597193Y547870D01*
X597082Y547819D01*
X596973Y547764D01*
X596865Y547706D01*
X596760Y547644D01*
X596657Y547579D01*
X596555Y547511D01*
X596456Y547439D01*
X596360Y547365D01*
X596265Y547287D01*
X596174Y547206D01*
X596084Y547123D01*
X595998Y547037D01*
X595915Y546947D01*
X595834Y546856D01*
X595756Y546761D01*
X595682Y546665D01*
X595610Y546566D01*
X595542Y546464D01*
X595477Y546361D01*
X595415Y546256D01*
X595357Y546148D01*
X595302Y546039D01*
X595251Y545928D01*
X595203Y545816D01*
X595159Y545702D01*
X595119Y545587D01*
X595082Y545470D01*
X595050Y545352D01*
X595021Y545234D01*
X594995Y545114D01*
X594974Y544994D01*
X594956Y544873D01*
X594943Y544752D01*
X594933Y544630D01*
X594927Y544508D01*
X594925Y544386D01*
X594927Y544264D01*
X594933Y544142D01*
X594943Y544020D01*
X594956Y543899D01*
X594974Y543778D01*
X594995Y543658D01*
X595021Y543538D01*
X595050Y543420D01*
X595082Y543302D01*
X595119Y543185D01*
X595159Y543070D01*
X595203Y542956D01*
X595251Y542844D01*
X595302Y542733D01*
X595357Y542624D01*
X595415Y542516D01*
X595477Y542411D01*
X595542Y542308D01*
X595610Y542206D01*
X595682Y542107D01*
X595756Y542011D01*
X595834Y541916D01*
X595915Y541825D01*
X595998Y541735D01*
X596084Y541649D01*
X596174Y541566D01*
X596265Y541485D01*
X596360Y541407D01*
X596456Y541333D01*
X596555Y541261D01*
X596657Y541193D01*
X596760Y541128D01*
X596865Y541066D01*
X596973Y541008D01*
X597082Y540953D01*
X597193Y540902D01*
X597305Y540854D01*
X597419Y540810D01*
X597534Y540770D01*
X597651Y540733D01*
X597769Y540701D01*
X597887Y540672D01*
X598007Y540646D01*
X598127Y540625D01*
X598248Y540607D01*
X598369Y540594D01*
X598491Y540584D01*
X598613Y540578D01*
X598735Y540576D01*
X599299Y489733D02*
X599421Y489731D01*
X599543Y489725D01*
X599665Y489715D01*
X599786Y489702D01*
X599907Y489684D01*
X600027Y489663D01*
X600147Y489637D01*
X600265Y489608D01*
X600383Y489576D01*
X600500Y489539D01*
X600615Y489499D01*
X600729Y489455D01*
X600841Y489407D01*
X600952Y489356D01*
X601061Y489301D01*
X601169Y489243D01*
X601274Y489181D01*
X601377Y489116D01*
X601479Y489048D01*
X601578Y488976D01*
X601674Y488902D01*
X601769Y488824D01*
X601860Y488743D01*
X601950Y488660D01*
X602036Y488574D01*
X602119Y488484D01*
X602200Y488393D01*
X602278Y488298D01*
X602352Y488202D01*
X602424Y488103D01*
X602492Y488001D01*
X602557Y487898D01*
X602619Y487793D01*
X602677Y487685D01*
X602732Y487576D01*
X602783Y487465D01*
X602831Y487353D01*
X602875Y487239D01*
X602915Y487124D01*
X602952Y487007D01*
X602984Y486889D01*
X603013Y486771D01*
X603039Y486651D01*
X603060Y486531D01*
X603078Y486410D01*
X603091Y486289D01*
X603101Y486167D01*
X603107Y486045D01*
X603109Y485923D01*
X603107Y485801D01*
X603101Y485679D01*
X603091Y485557D01*
X603078Y485436D01*
X603060Y485315D01*
X603039Y485195D01*
X603013Y485075D01*
X602984Y484957D01*
X602952Y484839D01*
X602915Y484722D01*
X602875Y484607D01*
X602831Y484493D01*
X602783Y484381D01*
X602732Y484270D01*
X602677Y484161D01*
X602619Y484053D01*
X602557Y483948D01*
X602492Y483845D01*
X602424Y483743D01*
X602352Y483644D01*
X602278Y483548D01*
X602200Y483453D01*
X602119Y483362D01*
X602036Y483272D01*
X601950Y483186D01*
X601860Y483103D01*
X601769Y483022D01*
X601674Y482944D01*
X601578Y482870D01*
X601479Y482798D01*
X601377Y482730D01*
X601274Y482665D01*
X601169Y482603D01*
X601061Y482545D01*
X600952Y482490D01*
X600841Y482439D01*
X600729Y482391D01*
X600615Y482347D01*
X600500Y482307D01*
X600383Y482270D01*
X600265Y482238D01*
X600147Y482209D01*
X600027Y482183D01*
X599907Y482162D01*
X599786Y482144D01*
X599665Y482131D01*
X599543Y482121D01*
X599421Y482115D01*
X599299Y482113D01*
X599177Y482115D01*
X599055Y482121D01*
X598933Y482131D01*
X598812Y482144D01*
X598691Y482162D01*
X598571Y482183D01*
X598451Y482209D01*
X598333Y482238D01*
X598215Y482270D01*
X598098Y482307D01*
X597983Y482347D01*
X597869Y482391D01*
X597757Y482439D01*
X597646Y482490D01*
X597537Y482545D01*
X597429Y482603D01*
X597324Y482665D01*
X597221Y482730D01*
X597119Y482798D01*
X597020Y482870D01*
X596924Y482944D01*
X596829Y483022D01*
X596738Y483103D01*
X596648Y483186D01*
X596562Y483272D01*
X596479Y483362D01*
X596398Y483453D01*
X596320Y483548D01*
X596246Y483644D01*
X596174Y483743D01*
X596106Y483845D01*
X596041Y483948D01*
X595979Y484053D01*
X595921Y484161D01*
X595866Y484270D01*
X595815Y484381D01*
X595767Y484493D01*
X595723Y484607D01*
X595683Y484722D01*
X595646Y484839D01*
X595614Y484957D01*
X595585Y485075D01*
X595559Y485195D01*
X595538Y485315D01*
X595520Y485436D01*
X595507Y485557D01*
X595497Y485679D01*
X595491Y485801D01*
X595489Y485923D01*
X595491Y486045D01*
X595497Y486167D01*
X595507Y486289D01*
X595520Y486410D01*
X595538Y486531D01*
X595559Y486651D01*
X595585Y486771D01*
X595614Y486889D01*
X595646Y487007D01*
X595683Y487124D01*
X595723Y487239D01*
X595767Y487353D01*
X595815Y487465D01*
X595866Y487576D01*
X595921Y487685D01*
X595979Y487793D01*
X596041Y487898D01*
X596106Y488001D01*
X596174Y488103D01*
X596246Y488202D01*
X596320Y488298D01*
X596398Y488393D01*
X596479Y488484D01*
X596562Y488574D01*
X596648Y488660D01*
X596738Y488743D01*
X596829Y488824D01*
X596924Y488902D01*
X597020Y488976D01*
X597119Y489048D01*
X597221Y489116D01*
X597324Y489181D01*
X597429Y489243D01*
X597537Y489301D01*
X597646Y489356D01*
X597757Y489407D01*
X597869Y489455D01*
X597983Y489499D01*
X598098Y489539D01*
X598215Y489576D01*
X598333Y489608D01*
X598451Y489637D01*
X598571Y489663D01*
X598691Y489684D01*
X598812Y489702D01*
X598933Y489715D01*
X599055Y489725D01*
X599177Y489731D01*
X599299Y489733D01*
X658353Y487563D02*
X658475Y487561D01*
X658597Y487555D01*
X658719Y487545D01*
X658840Y487532D01*
X658961Y487514D01*
X659081Y487493D01*
X659201Y487467D01*
X659319Y487438D01*
X659437Y487406D01*
X659554Y487369D01*
X659669Y487329D01*
X659783Y487285D01*
X659895Y487237D01*
X660006Y487186D01*
X660115Y487131D01*
X660223Y487073D01*
X660328Y487011D01*
X660431Y486946D01*
X660533Y486878D01*
X660632Y486806D01*
X660728Y486732D01*
X660823Y486654D01*
X660914Y486573D01*
X661004Y486490D01*
X661090Y486404D01*
X661173Y486314D01*
X661254Y486223D01*
X661332Y486128D01*
X661406Y486032D01*
X661478Y485933D01*
X661546Y485831D01*
X661611Y485728D01*
X661673Y485623D01*
X661731Y485515D01*
X661786Y485406D01*
X661837Y485295D01*
X661885Y485183D01*
X661929Y485069D01*
X661969Y484954D01*
X662006Y484837D01*
X662038Y484719D01*
X662067Y484601D01*
X662093Y484481D01*
X662114Y484361D01*
X662132Y484240D01*
X662145Y484119D01*
X662155Y483997D01*
X662161Y483875D01*
X662163Y483753D01*
X662161Y483631D01*
X662155Y483509D01*
X662145Y483387D01*
X662132Y483266D01*
X662114Y483145D01*
X662093Y483025D01*
X662067Y482905D01*
X662038Y482787D01*
X662006Y482669D01*
X661969Y482552D01*
X661929Y482437D01*
X661885Y482323D01*
X661837Y482211D01*
X661786Y482100D01*
X661731Y481991D01*
X661673Y481883D01*
X661611Y481778D01*
X661546Y481675D01*
X661478Y481573D01*
X661406Y481474D01*
X661332Y481378D01*
X661254Y481283D01*
X661173Y481192D01*
X661090Y481102D01*
X661004Y481016D01*
X660914Y480933D01*
X660823Y480852D01*
X660728Y480774D01*
X660632Y480700D01*
X660533Y480628D01*
X660431Y480560D01*
X660328Y480495D01*
X660223Y480433D01*
X660115Y480375D01*
X660006Y480320D01*
X659895Y480269D01*
X659783Y480221D01*
X659669Y480177D01*
X659554Y480137D01*
X659437Y480100D01*
X659319Y480068D01*
X659201Y480039D01*
X659081Y480013D01*
X658961Y479992D01*
X658840Y479974D01*
X658719Y479961D01*
X658597Y479951D01*
X658475Y479945D01*
X658353Y479943D01*
X658231Y479945D01*
X658109Y479951D01*
X657987Y479961D01*
X657866Y479974D01*
X657745Y479992D01*
X657625Y480013D01*
X657505Y480039D01*
X657387Y480068D01*
X657269Y480100D01*
X657152Y480137D01*
X657037Y480177D01*
X656923Y480221D01*
X656811Y480269D01*
X656700Y480320D01*
X656591Y480375D01*
X656483Y480433D01*
X656378Y480495D01*
X656275Y480560D01*
X656173Y480628D01*
X656074Y480700D01*
X655978Y480774D01*
X655883Y480852D01*
X655792Y480933D01*
X655702Y481016D01*
X655616Y481102D01*
X655533Y481192D01*
X655452Y481283D01*
X655374Y481378D01*
X655300Y481474D01*
X655228Y481573D01*
X655160Y481675D01*
X655095Y481778D01*
X655033Y481883D01*
X654975Y481991D01*
X654920Y482100D01*
X654869Y482211D01*
X654821Y482323D01*
X654777Y482437D01*
X654737Y482552D01*
X654700Y482669D01*
X654668Y482787D01*
X654639Y482905D01*
X654613Y483025D01*
X654592Y483145D01*
X654574Y483266D01*
X654561Y483387D01*
X654551Y483509D01*
X654545Y483631D01*
X654543Y483753D01*
X654545Y483875D01*
X654551Y483997D01*
X654561Y484119D01*
X654574Y484240D01*
X654592Y484361D01*
X654613Y484481D01*
X654639Y484601D01*
X654668Y484719D01*
X654700Y484837D01*
X654737Y484954D01*
X654777Y485069D01*
X654821Y485183D01*
X654869Y485295D01*
X654920Y485406D01*
X654975Y485515D01*
X655033Y485623D01*
X655095Y485728D01*
X655160Y485831D01*
X655228Y485933D01*
X655300Y486032D01*
X655374Y486128D01*
X655452Y486223D01*
X655533Y486314D01*
X655616Y486404D01*
X655702Y486490D01*
X655792Y486573D01*
X655883Y486654D01*
X655978Y486732D01*
X656074Y486806D01*
X656173Y486878D01*
X656275Y486946D01*
X656378Y487011D01*
X656483Y487073D01*
X656591Y487131D01*
X656700Y487186D01*
X656811Y487237D01*
X656923Y487285D01*
X657037Y487329D01*
X657152Y487369D01*
X657269Y487406D01*
X657387Y487438D01*
X657505Y487467D01*
X657625Y487493D01*
X657745Y487514D01*
X657866Y487532D01*
X657987Y487545D01*
X658109Y487555D01*
X658231Y487561D01*
X658353Y487563D01*
X599878Y429726D02*
X600000Y429724D01*
X600122Y429718D01*
X600244Y429708D01*
X600365Y429695D01*
X600486Y429677D01*
X600606Y429656D01*
X600726Y429630D01*
X600844Y429601D01*
X600962Y429569D01*
X601079Y429532D01*
X601194Y429492D01*
X601308Y429448D01*
X601420Y429400D01*
X601531Y429349D01*
X601640Y429294D01*
X601748Y429236D01*
X601853Y429174D01*
X601956Y429109D01*
X602058Y429041D01*
X602157Y428969D01*
X602253Y428895D01*
X602348Y428817D01*
X602439Y428736D01*
X602529Y428653D01*
X602615Y428567D01*
X602698Y428477D01*
X602779Y428386D01*
X602857Y428291D01*
X602931Y428195D01*
X603003Y428096D01*
X603071Y427994D01*
X603136Y427891D01*
X603198Y427786D01*
X603256Y427678D01*
X603311Y427569D01*
X603362Y427458D01*
X603410Y427346D01*
X603454Y427232D01*
X603494Y427117D01*
X603531Y427000D01*
X603563Y426882D01*
X603592Y426764D01*
X603618Y426644D01*
X603639Y426524D01*
X603657Y426403D01*
X603670Y426282D01*
X603680Y426160D01*
X603686Y426038D01*
X603688Y425916D01*
X603686Y425794D01*
X603680Y425672D01*
X603670Y425550D01*
X603657Y425429D01*
X603639Y425308D01*
X603618Y425188D01*
X603592Y425068D01*
X603563Y424950D01*
X603531Y424832D01*
X603494Y424715D01*
X603454Y424600D01*
X603410Y424486D01*
X603362Y424374D01*
X603311Y424263D01*
X603256Y424154D01*
X603198Y424046D01*
X603136Y423941D01*
X603071Y423838D01*
X603003Y423736D01*
X602931Y423637D01*
X602857Y423541D01*
X602779Y423446D01*
X602698Y423355D01*
X602615Y423265D01*
X602529Y423179D01*
X602439Y423096D01*
X602348Y423015D01*
X602253Y422937D01*
X602157Y422863D01*
X602058Y422791D01*
X601956Y422723D01*
X601853Y422658D01*
X601748Y422596D01*
X601640Y422538D01*
X601531Y422483D01*
X601420Y422432D01*
X601308Y422384D01*
X601194Y422340D01*
X601079Y422300D01*
X600962Y422263D01*
X600844Y422231D01*
X600726Y422202D01*
X600606Y422176D01*
X600486Y422155D01*
X600365Y422137D01*
X600244Y422124D01*
X600122Y422114D01*
X600000Y422108D01*
X599878Y422106D01*
X599756Y422108D01*
X599634Y422114D01*
X599512Y422124D01*
X599391Y422137D01*
X599270Y422155D01*
X599150Y422176D01*
X599030Y422202D01*
X598912Y422231D01*
X598794Y422263D01*
X598677Y422300D01*
X598562Y422340D01*
X598448Y422384D01*
X598336Y422432D01*
X598225Y422483D01*
X598116Y422538D01*
X598008Y422596D01*
X597903Y422658D01*
X597800Y422723D01*
X597698Y422791D01*
X597599Y422863D01*
X597503Y422937D01*
X597408Y423015D01*
X597317Y423096D01*
X597227Y423179D01*
X597141Y423265D01*
X597058Y423355D01*
X596977Y423446D01*
X596899Y423541D01*
X596825Y423637D01*
X596753Y423736D01*
X596685Y423838D01*
X596620Y423941D01*
X596558Y424046D01*
X596500Y424154D01*
X596445Y424263D01*
X596394Y424374D01*
X596346Y424486D01*
X596302Y424600D01*
X596262Y424715D01*
X596225Y424832D01*
X596193Y424950D01*
X596164Y425068D01*
X596138Y425188D01*
X596117Y425308D01*
X596099Y425429D01*
X596086Y425550D01*
X596076Y425672D01*
X596070Y425794D01*
X596068Y425916D01*
X596070Y426038D01*
X596076Y426160D01*
X596086Y426282D01*
X596099Y426403D01*
X596117Y426524D01*
X596138Y426644D01*
X596164Y426764D01*
X596193Y426882D01*
X596225Y427000D01*
X596262Y427117D01*
X596302Y427232D01*
X596346Y427346D01*
X596394Y427458D01*
X596445Y427569D01*
X596500Y427678D01*
X596558Y427786D01*
X596620Y427891D01*
X596685Y427994D01*
X596753Y428096D01*
X596825Y428195D01*
X596899Y428291D01*
X596977Y428386D01*
X597058Y428477D01*
X597141Y428567D01*
X597227Y428653D01*
X597317Y428736D01*
X597408Y428817D01*
X597503Y428895D01*
X597599Y428969D01*
X597698Y429041D01*
X597800Y429109D01*
X597903Y429174D01*
X598008Y429236D01*
X598116Y429294D01*
X598225Y429349D01*
X598336Y429400D01*
X598448Y429448D01*
X598562Y429492D01*
X598677Y429532D01*
X598794Y429569D01*
X598912Y429601D01*
X599030Y429630D01*
X599150Y429656D01*
X599270Y429677D01*
X599391Y429695D01*
X599512Y429708D01*
X599634Y429718D01*
X599756Y429724D01*
X599878Y429726D01*
X662556Y318935D02*
X662558Y319057D01*
X662564Y319179D01*
X662574Y319301D01*
X662587Y319422D01*
X662605Y319543D01*
X662626Y319663D01*
X662652Y319783D01*
X662681Y319901D01*
X662713Y320019D01*
X662750Y320136D01*
X662790Y320251D01*
X662834Y320365D01*
X662882Y320477D01*
X662933Y320588D01*
X662988Y320697D01*
X663046Y320805D01*
X663108Y320910D01*
X663173Y321013D01*
X663241Y321115D01*
X663313Y321214D01*
X663387Y321310D01*
X663465Y321405D01*
X663546Y321496D01*
X663629Y321586D01*
X663715Y321672D01*
X663805Y321755D01*
X663896Y321836D01*
X663991Y321914D01*
X664087Y321988D01*
X664186Y322060D01*
X664288Y322128D01*
X664391Y322193D01*
X664496Y322255D01*
X664604Y322313D01*
X664713Y322368D01*
X664824Y322419D01*
X664936Y322467D01*
X665050Y322511D01*
X665165Y322551D01*
X665282Y322588D01*
X665400Y322620D01*
X665518Y322649D01*
X665638Y322675D01*
X665758Y322696D01*
X665879Y322714D01*
X666000Y322727D01*
X666122Y322737D01*
X666244Y322743D01*
X666366Y322745D01*
X666488Y322743D01*
X666610Y322737D01*
X666732Y322727D01*
X666853Y322714D01*
X666974Y322696D01*
X667094Y322675D01*
X667214Y322649D01*
X667332Y322620D01*
X667450Y322588D01*
X667567Y322551D01*
X667682Y322511D01*
X667796Y322467D01*
X667908Y322419D01*
X668019Y322368D01*
X668128Y322313D01*
X668236Y322255D01*
X668341Y322193D01*
X668444Y322128D01*
X668546Y322060D01*
X668645Y321988D01*
X668741Y321914D01*
X668836Y321836D01*
X668927Y321755D01*
X669017Y321672D01*
X669103Y321586D01*
X669186Y321496D01*
X669267Y321405D01*
X669345Y321310D01*
X669419Y321214D01*
X669491Y321115D01*
X669559Y321013D01*
X669624Y320910D01*
X669686Y320805D01*
X669744Y320697D01*
X669799Y320588D01*
X669850Y320477D01*
X669898Y320365D01*
X669942Y320251D01*
X669982Y320136D01*
X670019Y320019D01*
X670051Y319901D01*
X670080Y319783D01*
X670106Y319663D01*
X670127Y319543D01*
X670145Y319422D01*
X670158Y319301D01*
X670168Y319179D01*
X670174Y319057D01*
X670176Y318935D01*
X670174Y318813D01*
X670168Y318691D01*
X670158Y318569D01*
X670145Y318448D01*
X670127Y318327D01*
X670106Y318207D01*
X670080Y318087D01*
X670051Y317969D01*
X670019Y317851D01*
X669982Y317734D01*
X669942Y317619D01*
X669898Y317505D01*
X669850Y317393D01*
X669799Y317282D01*
X669744Y317173D01*
X669686Y317065D01*
X669624Y316960D01*
X669559Y316857D01*
X669491Y316755D01*
X669419Y316656D01*
X669345Y316560D01*
X669267Y316465D01*
X669186Y316374D01*
X669103Y316284D01*
X669017Y316198D01*
X668927Y316115D01*
X668836Y316034D01*
X668741Y315956D01*
X668645Y315882D01*
X668546Y315810D01*
X668444Y315742D01*
X668341Y315677D01*
X668236Y315615D01*
X668128Y315557D01*
X668019Y315502D01*
X667908Y315451D01*
X667796Y315403D01*
X667682Y315359D01*
X667567Y315319D01*
X667450Y315282D01*
X667332Y315250D01*
X667214Y315221D01*
X667094Y315195D01*
X666974Y315174D01*
X666853Y315156D01*
X666732Y315143D01*
X666610Y315133D01*
X666488Y315127D01*
X666366Y315125D01*
X666244Y315127D01*
X666122Y315133D01*
X666000Y315143D01*
X665879Y315156D01*
X665758Y315174D01*
X665638Y315195D01*
X665518Y315221D01*
X665400Y315250D01*
X665282Y315282D01*
X665165Y315319D01*
X665050Y315359D01*
X664936Y315403D01*
X664824Y315451D01*
X664713Y315502D01*
X664604Y315557D01*
X664496Y315615D01*
X664391Y315677D01*
X664288Y315742D01*
X664186Y315810D01*
X664087Y315882D01*
X663991Y315956D01*
X663896Y316034D01*
X663805Y316115D01*
X663715Y316198D01*
X663629Y316284D01*
X663546Y316374D01*
X663465Y316465D01*
X663387Y316560D01*
X663313Y316656D01*
X663241Y316755D01*
X663173Y316857D01*
X663108Y316960D01*
X663046Y317065D01*
X662988Y317173D01*
X662933Y317282D01*
X662882Y317393D01*
X662834Y317505D01*
X662790Y317619D01*
X662750Y317734D01*
X662713Y317851D01*
X662681Y317969D01*
X662652Y318087D01*
X662626Y318207D01*
X662605Y318327D01*
X662587Y318448D01*
X662574Y318569D01*
X662564Y318691D01*
X662558Y318813D01*
X662556Y318935D01*
X579755Y161671D02*
X579753Y161549D01*
X579747Y161427D01*
X579737Y161305D01*
X579724Y161184D01*
X579706Y161063D01*
X579685Y160943D01*
X579659Y160823D01*
X579630Y160705D01*
X579598Y160587D01*
X579561Y160470D01*
X579521Y160355D01*
X579477Y160241D01*
X579429Y160129D01*
X579378Y160018D01*
X579323Y159909D01*
X579265Y159801D01*
X579203Y159696D01*
X579138Y159593D01*
X579070Y159491D01*
X578998Y159392D01*
X578924Y159296D01*
X578846Y159201D01*
X578765Y159110D01*
X578682Y159020D01*
X578596Y158934D01*
X578506Y158851D01*
X578415Y158770D01*
X578320Y158692D01*
X578224Y158618D01*
X578125Y158546D01*
X578023Y158478D01*
X577920Y158413D01*
X577815Y158351D01*
X577707Y158293D01*
X577598Y158238D01*
X577487Y158187D01*
X577375Y158139D01*
X577261Y158095D01*
X577146Y158055D01*
X577029Y158018D01*
X576911Y157986D01*
X576793Y157957D01*
X576673Y157931D01*
X576553Y157910D01*
X576432Y157892D01*
X576311Y157879D01*
X576189Y157869D01*
X576067Y157863D01*
X575945Y157861D01*
X575823Y157863D01*
X575701Y157869D01*
X575579Y157879D01*
X575458Y157892D01*
X575337Y157910D01*
X575217Y157931D01*
X575097Y157957D01*
X574979Y157986D01*
X574861Y158018D01*
X574744Y158055D01*
X574629Y158095D01*
X574515Y158139D01*
X574403Y158187D01*
X574292Y158238D01*
X574183Y158293D01*
X574075Y158351D01*
X573970Y158413D01*
X573867Y158478D01*
X573765Y158546D01*
X573666Y158618D01*
X573570Y158692D01*
X573475Y158770D01*
X573384Y158851D01*
X573294Y158934D01*
X573208Y159020D01*
X573125Y159110D01*
X573044Y159201D01*
X572966Y159296D01*
X572892Y159392D01*
X572820Y159491D01*
X572752Y159593D01*
X572687Y159696D01*
X572625Y159801D01*
X572567Y159909D01*
X572512Y160018D01*
X572461Y160129D01*
X572413Y160241D01*
X572369Y160355D01*
X572329Y160470D01*
X572292Y160587D01*
X572260Y160705D01*
X572231Y160823D01*
X572205Y160943D01*
X572184Y161063D01*
X572166Y161184D01*
X572153Y161305D01*
X572143Y161427D01*
X572137Y161549D01*
X572135Y161671D01*
X572137Y161793D01*
X572143Y161915D01*
X572153Y162037D01*
X572166Y162158D01*
X572184Y162279D01*
X572205Y162399D01*
X572231Y162519D01*
X572260Y162637D01*
X572292Y162755D01*
X572329Y162872D01*
X572369Y162987D01*
X572413Y163101D01*
X572461Y163213D01*
X572512Y163324D01*
X572567Y163433D01*
X572625Y163541D01*
X572687Y163646D01*
X572752Y163749D01*
X572820Y163851D01*
X572892Y163950D01*
X572966Y164046D01*
X573044Y164141D01*
X573125Y164232D01*
X573208Y164322D01*
X573294Y164408D01*
X573384Y164491D01*
X573475Y164572D01*
X573570Y164650D01*
X573666Y164724D01*
X573765Y164796D01*
X573867Y164864D01*
X573970Y164929D01*
X574075Y164991D01*
X574183Y165049D01*
X574292Y165104D01*
X574403Y165155D01*
X574515Y165203D01*
X574629Y165247D01*
X574744Y165287D01*
X574861Y165324D01*
X574979Y165356D01*
X575097Y165385D01*
X575217Y165411D01*
X575337Y165432D01*
X575458Y165450D01*
X575579Y165463D01*
X575701Y165473D01*
X575823Y165479D01*
X575945Y165481D01*
X576067Y165479D01*
X576189Y165473D01*
X576311Y165463D01*
X576432Y165450D01*
X576553Y165432D01*
X576673Y165411D01*
X576793Y165385D01*
X576911Y165356D01*
X577029Y165324D01*
X577146Y165287D01*
X577261Y165247D01*
X577375Y165203D01*
X577487Y165155D01*
X577598Y165104D01*
X577707Y165049D01*
X577815Y164991D01*
X577920Y164929D01*
X578023Y164864D01*
X578125Y164796D01*
X578224Y164724D01*
X578320Y164650D01*
X578415Y164572D01*
X578506Y164491D01*
X578596Y164408D01*
X578682Y164322D01*
X578765Y164232D01*
X578846Y164141D01*
X578924Y164046D01*
X578998Y163950D01*
X579070Y163851D01*
X579138Y163749D01*
X579203Y163646D01*
X579265Y163541D01*
X579323Y163433D01*
X579378Y163324D01*
X579429Y163213D01*
X579477Y163101D01*
X579521Y162987D01*
X579561Y162872D01*
X579598Y162755D01*
X579630Y162637D01*
X579659Y162519D01*
X579685Y162399D01*
X579706Y162279D01*
X579724Y162158D01*
X579737Y162037D01*
X579747Y161915D01*
X579753Y161793D01*
X579755Y161671D01*
X729742Y161925D02*
X729744Y162047D01*
X729750Y162169D01*
X729760Y162291D01*
X729773Y162412D01*
X729791Y162533D01*
X729812Y162653D01*
X729838Y162773D01*
X729867Y162891D01*
X729899Y163009D01*
X729936Y163126D01*
X729976Y163241D01*
X730020Y163355D01*
X730068Y163467D01*
X730119Y163578D01*
X730174Y163687D01*
X730232Y163795D01*
X730294Y163900D01*
X730359Y164003D01*
X730427Y164105D01*
X730499Y164204D01*
X730573Y164300D01*
X730651Y164395D01*
X730732Y164486D01*
X730815Y164576D01*
X730901Y164662D01*
X730991Y164745D01*
X731082Y164826D01*
X731177Y164904D01*
X731273Y164978D01*
X731372Y165050D01*
X731474Y165118D01*
X731577Y165183D01*
X731682Y165245D01*
X731790Y165303D01*
X731899Y165358D01*
X732010Y165409D01*
X732122Y165457D01*
X732236Y165501D01*
X732351Y165541D01*
X732468Y165578D01*
X732586Y165610D01*
X732704Y165639D01*
X732824Y165665D01*
X732944Y165686D01*
X733065Y165704D01*
X733186Y165717D01*
X733308Y165727D01*
X733430Y165733D01*
X733552Y165735D01*
X733674Y165733D01*
X733796Y165727D01*
X733918Y165717D01*
X734039Y165704D01*
X734160Y165686D01*
X734280Y165665D01*
X734400Y165639D01*
X734518Y165610D01*
X734636Y165578D01*
X734753Y165541D01*
X734868Y165501D01*
X734982Y165457D01*
X735094Y165409D01*
X735205Y165358D01*
X735314Y165303D01*
X735422Y165245D01*
X735527Y165183D01*
X735630Y165118D01*
X735732Y165050D01*
X735831Y164978D01*
X735927Y164904D01*
X736022Y164826D01*
X736113Y164745D01*
X736203Y164662D01*
X736289Y164576D01*
X736372Y164486D01*
X736453Y164395D01*
X736531Y164300D01*
X736605Y164204D01*
X736677Y164105D01*
X736745Y164003D01*
X736810Y163900D01*
X736872Y163795D01*
X736930Y163687D01*
X736985Y163578D01*
X737036Y163467D01*
X737084Y163355D01*
X737128Y163241D01*
X737168Y163126D01*
X737205Y163009D01*
X737237Y162891D01*
X737266Y162773D01*
X737292Y162653D01*
X737313Y162533D01*
X737331Y162412D01*
X737344Y162291D01*
X737354Y162169D01*
X737360Y162047D01*
X737362Y161925D01*
X737360Y161803D01*
X737354Y161681D01*
X737344Y161559D01*
X737331Y161438D01*
X737313Y161317D01*
X737292Y161197D01*
X737266Y161077D01*
X737237Y160959D01*
X737205Y160841D01*
X737168Y160724D01*
X737128Y160609D01*
X737084Y160495D01*
X737036Y160383D01*
X736985Y160272D01*
X736930Y160163D01*
X736872Y160055D01*
X736810Y159950D01*
X736745Y159847D01*
X736677Y159745D01*
X736605Y159646D01*
X736531Y159550D01*
X736453Y159455D01*
X736372Y159364D01*
X736289Y159274D01*
X736203Y159188D01*
X736113Y159105D01*
X736022Y159024D01*
X735927Y158946D01*
X735831Y158872D01*
X735732Y158800D01*
X735630Y158732D01*
X735527Y158667D01*
X735422Y158605D01*
X735314Y158547D01*
X735205Y158492D01*
X735094Y158441D01*
X734982Y158393D01*
X734868Y158349D01*
X734753Y158309D01*
X734636Y158272D01*
X734518Y158240D01*
X734400Y158211D01*
X734280Y158185D01*
X734160Y158164D01*
X734039Y158146D01*
X733918Y158133D01*
X733796Y158123D01*
X733674Y158117D01*
X733552Y158115D01*
X733430Y158117D01*
X733308Y158123D01*
X733186Y158133D01*
X733065Y158146D01*
X732944Y158164D01*
X732824Y158185D01*
X732704Y158211D01*
X732586Y158240D01*
X732468Y158272D01*
X732351Y158309D01*
X732236Y158349D01*
X732122Y158393D01*
X732010Y158441D01*
X731899Y158492D01*
X731790Y158547D01*
X731682Y158605D01*
X731577Y158667D01*
X731474Y158732D01*
X731372Y158800D01*
X731273Y158872D01*
X731177Y158946D01*
X731082Y159024D01*
X730991Y159105D01*
X730901Y159188D01*
X730815Y159274D01*
X730732Y159364D01*
X730651Y159455D01*
X730573Y159550D01*
X730499Y159646D01*
X730427Y159745D01*
X730359Y159847D01*
X730294Y159950D01*
X730232Y160055D01*
X730174Y160163D01*
X730119Y160272D01*
X730068Y160383D01*
X730020Y160495D01*
X729976Y160609D01*
X729936Y160724D01*
X729899Y160841D01*
X729867Y160959D01*
X729838Y161077D01*
X729812Y161197D01*
X729791Y161317D01*
X729773Y161438D01*
X729760Y161559D01*
X729750Y161681D01*
X729744Y161803D01*
X729742Y161925D01*
X767150Y281699D02*
X767028Y281701D01*
X766906Y281707D01*
X766784Y281717D01*
X766663Y281730D01*
X766542Y281748D01*
X766422Y281769D01*
X766302Y281795D01*
X766184Y281824D01*
X766066Y281856D01*
X765949Y281893D01*
X765834Y281933D01*
X765720Y281977D01*
X765608Y282025D01*
X765497Y282076D01*
X765388Y282131D01*
X765280Y282189D01*
X765175Y282251D01*
X765072Y282316D01*
X764970Y282384D01*
X764871Y282456D01*
X764775Y282530D01*
X764680Y282608D01*
X764589Y282689D01*
X764499Y282772D01*
X764413Y282858D01*
X764330Y282948D01*
X764249Y283039D01*
X764171Y283134D01*
X764097Y283230D01*
X764025Y283329D01*
X763957Y283431D01*
X763892Y283534D01*
X763830Y283639D01*
X763772Y283747D01*
X763717Y283856D01*
X763666Y283967D01*
X763618Y284079D01*
X763574Y284193D01*
X763534Y284308D01*
X763497Y284425D01*
X763465Y284543D01*
X763436Y284661D01*
X763410Y284781D01*
X763389Y284901D01*
X763371Y285022D01*
X763358Y285143D01*
X763348Y285265D01*
X763342Y285387D01*
X763340Y285509D01*
X763342Y285631D01*
X763348Y285753D01*
X763358Y285875D01*
X763371Y285996D01*
X763389Y286117D01*
X763410Y286237D01*
X763436Y286357D01*
X763465Y286475D01*
X763497Y286593D01*
X763534Y286710D01*
X763574Y286825D01*
X763618Y286939D01*
X763666Y287051D01*
X763717Y287162D01*
X763772Y287271D01*
X763830Y287379D01*
X763892Y287484D01*
X763957Y287587D01*
X764025Y287689D01*
X764097Y287788D01*
X764171Y287884D01*
X764249Y287979D01*
X764330Y288070D01*
X764413Y288160D01*
X764499Y288246D01*
X764589Y288329D01*
X764680Y288410D01*
X764775Y288488D01*
X764871Y288562D01*
X764970Y288634D01*
X765072Y288702D01*
X765175Y288767D01*
X765280Y288829D01*
X765388Y288887D01*
X765497Y288942D01*
X765608Y288993D01*
X765720Y289041D01*
X765834Y289085D01*
X765949Y289125D01*
X766066Y289162D01*
X766184Y289194D01*
X766302Y289223D01*
X766422Y289249D01*
X766542Y289270D01*
X766663Y289288D01*
X766784Y289301D01*
X766906Y289311D01*
X767028Y289317D01*
X767150Y289319D01*
X767272Y289317D01*
X767394Y289311D01*
X767516Y289301D01*
X767637Y289288D01*
X767758Y289270D01*
X767878Y289249D01*
X767998Y289223D01*
X768116Y289194D01*
X768234Y289162D01*
X768351Y289125D01*
X768466Y289085D01*
X768580Y289041D01*
X768692Y288993D01*
X768803Y288942D01*
X768912Y288887D01*
X769020Y288829D01*
X769125Y288767D01*
X769228Y288702D01*
X769330Y288634D01*
X769429Y288562D01*
X769525Y288488D01*
X769620Y288410D01*
X769711Y288329D01*
X769801Y288246D01*
X769887Y288160D01*
X769970Y288070D01*
X770051Y287979D01*
X770129Y287884D01*
X770203Y287788D01*
X770275Y287689D01*
X770343Y287587D01*
X770408Y287484D01*
X770470Y287379D01*
X770528Y287271D01*
X770583Y287162D01*
X770634Y287051D01*
X770682Y286939D01*
X770726Y286825D01*
X770766Y286710D01*
X770803Y286593D01*
X770835Y286475D01*
X770864Y286357D01*
X770890Y286237D01*
X770911Y286117D01*
X770929Y285996D01*
X770942Y285875D01*
X770952Y285753D01*
X770958Y285631D01*
X770960Y285509D01*
X770958Y285387D01*
X770952Y285265D01*
X770942Y285143D01*
X770929Y285022D01*
X770911Y284901D01*
X770890Y284781D01*
X770864Y284661D01*
X770835Y284543D01*
X770803Y284425D01*
X770766Y284308D01*
X770726Y284193D01*
X770682Y284079D01*
X770634Y283967D01*
X770583Y283856D01*
X770528Y283747D01*
X770470Y283639D01*
X770408Y283534D01*
X770343Y283431D01*
X770275Y283329D01*
X770203Y283230D01*
X770129Y283134D01*
X770051Y283039D01*
X769970Y282948D01*
X769887Y282858D01*
X769801Y282772D01*
X769711Y282689D01*
X769620Y282608D01*
X769525Y282530D01*
X769429Y282456D01*
X769330Y282384D01*
X769228Y282316D01*
X769125Y282251D01*
X769020Y282189D01*
X768912Y282131D01*
X768803Y282076D01*
X768692Y282025D01*
X768580Y281977D01*
X768466Y281933D01*
X768351Y281893D01*
X768234Y281856D01*
X768116Y281824D01*
X767998Y281795D01*
X767878Y281769D01*
X767758Y281748D01*
X767637Y281730D01*
X767516Y281717D01*
X767394Y281707D01*
X767272Y281701D01*
X767150Y281699D01*
X1199833Y328295D02*
X1199711Y328297D01*
X1199589Y328303D01*
X1199467Y328313D01*
X1199346Y328326D01*
X1199225Y328344D01*
X1199105Y328365D01*
X1198985Y328391D01*
X1198867Y328420D01*
X1198749Y328452D01*
X1198632Y328489D01*
X1198517Y328529D01*
X1198403Y328573D01*
X1198291Y328621D01*
X1198180Y328672D01*
X1198071Y328727D01*
X1197963Y328785D01*
X1197858Y328847D01*
X1197755Y328912D01*
X1197653Y328980D01*
X1197554Y329052D01*
X1197458Y329126D01*
X1197363Y329204D01*
X1197272Y329285D01*
X1197182Y329368D01*
X1197096Y329454D01*
X1197013Y329544D01*
X1196932Y329635D01*
X1196854Y329730D01*
X1196780Y329826D01*
X1196708Y329925D01*
X1196640Y330027D01*
X1196575Y330130D01*
X1196513Y330235D01*
X1196455Y330343D01*
X1196400Y330452D01*
X1196349Y330563D01*
X1196301Y330675D01*
X1196257Y330789D01*
X1196217Y330904D01*
X1196180Y331021D01*
X1196148Y331139D01*
X1196119Y331257D01*
X1196093Y331377D01*
X1196072Y331497D01*
X1196054Y331618D01*
X1196041Y331739D01*
X1196031Y331861D01*
X1196025Y331983D01*
X1196023Y332105D01*
X1196025Y332227D01*
X1196031Y332349D01*
X1196041Y332471D01*
X1196054Y332592D01*
X1196072Y332713D01*
X1196093Y332833D01*
X1196119Y332953D01*
X1196148Y333071D01*
X1196180Y333189D01*
X1196217Y333306D01*
X1196257Y333421D01*
X1196301Y333535D01*
X1196349Y333647D01*
X1196400Y333758D01*
X1196455Y333867D01*
X1196513Y333975D01*
X1196575Y334080D01*
X1196640Y334183D01*
X1196708Y334285D01*
X1196780Y334384D01*
X1196854Y334480D01*
X1196932Y334575D01*
X1197013Y334666D01*
X1197096Y334756D01*
X1197182Y334842D01*
X1197272Y334925D01*
X1197363Y335006D01*
X1197458Y335084D01*
X1197554Y335158D01*
X1197653Y335230D01*
X1197755Y335298D01*
X1197858Y335363D01*
X1197963Y335425D01*
X1198071Y335483D01*
X1198180Y335538D01*
X1198291Y335589D01*
X1198403Y335637D01*
X1198517Y335681D01*
X1198632Y335721D01*
X1198749Y335758D01*
X1198867Y335790D01*
X1198985Y335819D01*
X1199105Y335845D01*
X1199225Y335866D01*
X1199346Y335884D01*
X1199467Y335897D01*
X1199589Y335907D01*
X1199711Y335913D01*
X1199833Y335915D01*
X1199955Y335913D01*
X1200077Y335907D01*
X1200199Y335897D01*
X1200320Y335884D01*
X1200441Y335866D01*
X1200561Y335845D01*
X1200681Y335819D01*
X1200799Y335790D01*
X1200917Y335758D01*
X1201034Y335721D01*
X1201149Y335681D01*
X1201263Y335637D01*
X1201375Y335589D01*
X1201486Y335538D01*
X1201595Y335483D01*
X1201703Y335425D01*
X1201808Y335363D01*
X1201911Y335298D01*
X1202013Y335230D01*
X1202112Y335158D01*
X1202208Y335084D01*
X1202303Y335006D01*
X1202394Y334925D01*
X1202484Y334842D01*
X1202570Y334756D01*
X1202653Y334666D01*
X1202734Y334575D01*
X1202812Y334480D01*
X1202886Y334384D01*
X1202958Y334285D01*
X1203026Y334183D01*
X1203091Y334080D01*
X1203153Y333975D01*
X1203211Y333867D01*
X1203266Y333758D01*
X1203317Y333647D01*
X1203365Y333535D01*
X1203409Y333421D01*
X1203449Y333306D01*
X1203486Y333189D01*
X1203518Y333071D01*
X1203547Y332953D01*
X1203573Y332833D01*
X1203594Y332713D01*
X1203612Y332592D01*
X1203625Y332471D01*
X1203635Y332349D01*
X1203641Y332227D01*
X1203643Y332105D01*
X1203641Y331983D01*
X1203635Y331861D01*
X1203625Y331739D01*
X1203612Y331618D01*
X1203594Y331497D01*
X1203573Y331377D01*
X1203547Y331257D01*
X1203518Y331139D01*
X1203486Y331021D01*
X1203449Y330904D01*
X1203409Y330789D01*
X1203365Y330675D01*
X1203317Y330563D01*
X1203266Y330452D01*
X1203211Y330343D01*
X1203153Y330235D01*
X1203091Y330130D01*
X1203026Y330027D01*
X1202958Y329925D01*
X1202886Y329826D01*
X1202812Y329730D01*
X1202734Y329635D01*
X1202653Y329544D01*
X1202570Y329454D01*
X1202484Y329368D01*
X1202394Y329285D01*
X1202303Y329204D01*
X1202208Y329126D01*
X1202112Y329052D01*
X1202013Y328980D01*
X1201911Y328912D01*
X1201808Y328847D01*
X1201703Y328785D01*
X1201595Y328727D01*
X1201486Y328672D01*
X1201375Y328621D01*
X1201263Y328573D01*
X1201149Y328529D01*
X1201034Y328489D01*
X1200917Y328452D01*
X1200799Y328420D01*
X1200681Y328391D01*
X1200561Y328365D01*
X1200441Y328344D01*
X1200320Y328326D01*
X1200199Y328313D01*
X1200077Y328303D01*
X1199955Y328297D01*
X1199833Y328295D01*
X1102417Y251968D02*
X1102539Y251966D01*
X1102661Y251960D01*
X1102783Y251950D01*
X1102904Y251937D01*
X1103025Y251919D01*
X1103145Y251898D01*
X1103265Y251872D01*
X1103383Y251843D01*
X1103501Y251811D01*
X1103618Y251774D01*
X1103733Y251734D01*
X1103847Y251690D01*
X1103959Y251642D01*
X1104070Y251591D01*
X1104179Y251536D01*
X1104287Y251478D01*
X1104392Y251416D01*
X1104495Y251351D01*
X1104597Y251283D01*
X1104696Y251211D01*
X1104792Y251137D01*
X1104887Y251059D01*
X1104978Y250978D01*
X1105068Y250895D01*
X1105154Y250809D01*
X1105237Y250719D01*
X1105318Y250628D01*
X1105396Y250533D01*
X1105470Y250437D01*
X1105542Y250338D01*
X1105610Y250236D01*
X1105675Y250133D01*
X1105737Y250028D01*
X1105795Y249920D01*
X1105850Y249811D01*
X1105901Y249700D01*
X1105949Y249588D01*
X1105993Y249474D01*
X1106033Y249359D01*
X1106070Y249242D01*
X1106102Y249124D01*
X1106131Y249006D01*
X1106157Y248886D01*
X1106178Y248766D01*
X1106196Y248645D01*
X1106209Y248524D01*
X1106219Y248402D01*
X1106225Y248280D01*
X1106227Y248158D01*
X1106225Y248036D01*
X1106219Y247914D01*
X1106209Y247792D01*
X1106196Y247671D01*
X1106178Y247550D01*
X1106157Y247430D01*
X1106131Y247310D01*
X1106102Y247192D01*
X1106070Y247074D01*
X1106033Y246957D01*
X1105993Y246842D01*
X1105949Y246728D01*
X1105901Y246616D01*
X1105850Y246505D01*
X1105795Y246396D01*
X1105737Y246288D01*
X1105675Y246183D01*
X1105610Y246080D01*
X1105542Y245978D01*
X1105470Y245879D01*
X1105396Y245783D01*
X1105318Y245688D01*
X1105237Y245597D01*
X1105154Y245507D01*
X1105068Y245421D01*
X1104978Y245338D01*
X1104887Y245257D01*
X1104792Y245179D01*
X1104696Y245105D01*
X1104597Y245033D01*
X1104495Y244965D01*
X1104392Y244900D01*
X1104287Y244838D01*
X1104179Y244780D01*
X1104070Y244725D01*
X1103959Y244674D01*
X1103847Y244626D01*
X1103733Y244582D01*
X1103618Y244542D01*
X1103501Y244505D01*
X1103383Y244473D01*
X1103265Y244444D01*
X1103145Y244418D01*
X1103025Y244397D01*
X1102904Y244379D01*
X1102783Y244366D01*
X1102661Y244356D01*
X1102539Y244350D01*
X1102417Y244348D01*
X1102295Y244350D01*
X1102173Y244356D01*
X1102051Y244366D01*
X1101930Y244379D01*
X1101809Y244397D01*
X1101689Y244418D01*
X1101569Y244444D01*
X1101451Y244473D01*
X1101333Y244505D01*
X1101216Y244542D01*
X1101101Y244582D01*
X1100987Y244626D01*
X1100875Y244674D01*
X1100764Y244725D01*
X1100655Y244780D01*
X1100547Y244838D01*
X1100442Y244900D01*
X1100339Y244965D01*
X1100237Y245033D01*
X1100138Y245105D01*
X1100042Y245179D01*
X1099947Y245257D01*
X1099856Y245338D01*
X1099766Y245421D01*
X1099680Y245507D01*
X1099597Y245597D01*
X1099516Y245688D01*
X1099438Y245783D01*
X1099364Y245879D01*
X1099292Y245978D01*
X1099224Y246080D01*
X1099159Y246183D01*
X1099097Y246288D01*
X1099039Y246396D01*
X1098984Y246505D01*
X1098933Y246616D01*
X1098885Y246728D01*
X1098841Y246842D01*
X1098801Y246957D01*
X1098764Y247074D01*
X1098732Y247192D01*
X1098703Y247310D01*
X1098677Y247430D01*
X1098656Y247550D01*
X1098638Y247671D01*
X1098625Y247792D01*
X1098615Y247914D01*
X1098609Y248036D01*
X1098607Y248158D01*
X1098609Y248280D01*
X1098615Y248402D01*
X1098625Y248524D01*
X1098638Y248645D01*
X1098656Y248766D01*
X1098677Y248886D01*
X1098703Y249006D01*
X1098732Y249124D01*
X1098764Y249242D01*
X1098801Y249359D01*
X1098841Y249474D01*
X1098885Y249588D01*
X1098933Y249700D01*
X1098984Y249811D01*
X1099039Y249920D01*
X1099097Y250028D01*
X1099159Y250133D01*
X1099224Y250236D01*
X1099292Y250338D01*
X1099364Y250437D01*
X1099438Y250533D01*
X1099516Y250628D01*
X1099597Y250719D01*
X1099680Y250809D01*
X1099766Y250895D01*
X1099856Y250978D01*
X1099947Y251059D01*
X1100042Y251137D01*
X1100138Y251211D01*
X1100237Y251283D01*
X1100339Y251351D01*
X1100442Y251416D01*
X1100547Y251478D01*
X1100655Y251536D01*
X1100764Y251591D01*
X1100875Y251642D01*
X1100987Y251690D01*
X1101101Y251734D01*
X1101216Y251774D01*
X1101333Y251811D01*
X1101451Y251843D01*
X1101569Y251872D01*
X1101689Y251898D01*
X1101809Y251919D01*
X1101930Y251937D01*
X1102051Y251950D01*
X1102173Y251960D01*
X1102295Y251966D01*
X1102417Y251968D01*
X1245489Y664845D02*
X1245611Y664847D01*
X1245733Y664853D01*
X1245855Y664863D01*
X1245976Y664876D01*
X1246097Y664894D01*
X1246217Y664915D01*
X1246337Y664941D01*
X1246455Y664970D01*
X1246573Y665002D01*
X1246690Y665039D01*
X1246805Y665079D01*
X1246919Y665123D01*
X1247031Y665171D01*
X1247142Y665222D01*
X1247251Y665277D01*
X1247359Y665335D01*
X1247464Y665397D01*
X1247567Y665462D01*
X1247669Y665530D01*
X1247768Y665602D01*
X1247864Y665676D01*
X1247959Y665754D01*
X1248050Y665835D01*
X1248140Y665918D01*
X1248226Y666004D01*
X1248309Y666094D01*
X1248390Y666185D01*
X1248468Y666280D01*
X1248542Y666376D01*
X1248614Y666475D01*
X1248682Y666577D01*
X1248747Y666680D01*
X1248809Y666785D01*
X1248867Y666893D01*
X1248922Y667002D01*
X1248973Y667113D01*
X1249021Y667225D01*
X1249065Y667339D01*
X1249105Y667454D01*
X1249142Y667571D01*
X1249174Y667689D01*
X1249203Y667807D01*
X1249229Y667927D01*
X1249250Y668047D01*
X1249268Y668168D01*
X1249281Y668289D01*
X1249291Y668411D01*
X1249297Y668533D01*
X1249299Y668655D01*
X1249297Y668777D01*
X1249291Y668899D01*
X1249281Y669021D01*
X1249268Y669142D01*
X1249250Y669263D01*
X1249229Y669383D01*
X1249203Y669503D01*
X1249174Y669621D01*
X1249142Y669739D01*
X1249105Y669856D01*
X1249065Y669971D01*
X1249021Y670085D01*
X1248973Y670197D01*
X1248922Y670308D01*
X1248867Y670417D01*
X1248809Y670525D01*
X1248747Y670630D01*
X1248682Y670733D01*
X1248614Y670835D01*
X1248542Y670934D01*
X1248468Y671030D01*
X1248390Y671125D01*
X1248309Y671216D01*
X1248226Y671306D01*
X1248140Y671392D01*
X1248050Y671475D01*
X1247959Y671556D01*
X1247864Y671634D01*
X1247768Y671708D01*
X1247669Y671780D01*
X1247567Y671848D01*
X1247464Y671913D01*
X1247359Y671975D01*
X1247251Y672033D01*
X1247142Y672088D01*
X1247031Y672139D01*
X1246919Y672187D01*
X1246805Y672231D01*
X1246690Y672271D01*
X1246573Y672308D01*
X1246455Y672340D01*
X1246337Y672369D01*
X1246217Y672395D01*
X1246097Y672416D01*
X1245976Y672434D01*
X1245855Y672447D01*
X1245733Y672457D01*
X1245611Y672463D01*
X1245489Y672465D01*
X1245367Y672463D01*
X1245245Y672457D01*
X1245123Y672447D01*
X1245002Y672434D01*
X1244881Y672416D01*
X1244761Y672395D01*
X1244641Y672369D01*
X1244523Y672340D01*
X1244405Y672308D01*
X1244288Y672271D01*
X1244173Y672231D01*
X1244059Y672187D01*
X1243947Y672139D01*
X1243836Y672088D01*
X1243727Y672033D01*
X1243619Y671975D01*
X1243514Y671913D01*
X1243411Y671848D01*
X1243309Y671780D01*
X1243210Y671708D01*
X1243114Y671634D01*
X1243019Y671556D01*
X1242928Y671475D01*
X1242838Y671392D01*
X1242752Y671306D01*
X1242669Y671216D01*
X1242588Y671125D01*
X1242510Y671030D01*
X1242436Y670934D01*
X1242364Y670835D01*
X1242296Y670733D01*
X1242231Y670630D01*
X1242169Y670525D01*
X1242111Y670417D01*
X1242056Y670308D01*
X1242005Y670197D01*
X1241957Y670085D01*
X1241913Y669971D01*
X1241873Y669856D01*
X1241836Y669739D01*
X1241804Y669621D01*
X1241775Y669503D01*
X1241749Y669383D01*
X1241728Y669263D01*
X1241710Y669142D01*
X1241697Y669021D01*
X1241687Y668899D01*
X1241681Y668777D01*
X1241679Y668655D01*
X1241681Y668533D01*
X1241687Y668411D01*
X1241697Y668289D01*
X1241710Y668168D01*
X1241728Y668047D01*
X1241749Y667927D01*
X1241775Y667807D01*
X1241804Y667689D01*
X1241836Y667571D01*
X1241873Y667454D01*
X1241913Y667339D01*
X1241957Y667225D01*
X1242005Y667113D01*
X1242056Y667002D01*
X1242111Y666893D01*
X1242169Y666785D01*
X1242231Y666680D01*
X1242296Y666577D01*
X1242364Y666475D01*
X1242436Y666376D01*
X1242510Y666280D01*
X1242588Y666185D01*
X1242669Y666094D01*
X1242752Y666004D01*
X1242838Y665918D01*
X1242928Y665835D01*
X1243019Y665754D01*
X1243114Y665676D01*
X1243210Y665602D01*
X1243309Y665530D01*
X1243411Y665462D01*
X1243514Y665397D01*
X1243619Y665335D01*
X1243727Y665277D01*
X1243836Y665222D01*
X1243947Y665171D01*
X1244059Y665123D01*
X1244173Y665079D01*
X1244288Y665039D01*
X1244405Y665002D01*
X1244523Y664970D01*
X1244641Y664941D01*
X1244761Y664915D01*
X1244881Y664894D01*
X1245002Y664876D01*
X1245123Y664863D01*
X1245245Y664853D01*
X1245367Y664847D01*
X1245489Y664845D01*
X1058799Y720725D02*
X1058921Y720727D01*
X1059043Y720733D01*
X1059165Y720743D01*
X1059286Y720756D01*
X1059407Y720774D01*
X1059527Y720795D01*
X1059647Y720821D01*
X1059765Y720850D01*
X1059883Y720882D01*
X1060000Y720919D01*
X1060115Y720959D01*
X1060229Y721003D01*
X1060341Y721051D01*
X1060452Y721102D01*
X1060561Y721157D01*
X1060669Y721215D01*
X1060774Y721277D01*
X1060877Y721342D01*
X1060979Y721410D01*
X1061078Y721482D01*
X1061174Y721556D01*
X1061269Y721634D01*
X1061360Y721715D01*
X1061450Y721798D01*
X1061536Y721884D01*
X1061619Y721974D01*
X1061700Y722065D01*
X1061778Y722160D01*
X1061852Y722256D01*
X1061924Y722355D01*
X1061992Y722457D01*
X1062057Y722560D01*
X1062119Y722665D01*
X1062177Y722773D01*
X1062232Y722882D01*
X1062283Y722993D01*
X1062331Y723105D01*
X1062375Y723219D01*
X1062415Y723334D01*
X1062452Y723451D01*
X1062484Y723569D01*
X1062513Y723687D01*
X1062539Y723807D01*
X1062560Y723927D01*
X1062578Y724048D01*
X1062591Y724169D01*
X1062601Y724291D01*
X1062607Y724413D01*
X1062609Y724535D01*
X1062607Y724657D01*
X1062601Y724779D01*
X1062591Y724901D01*
X1062578Y725022D01*
X1062560Y725143D01*
X1062539Y725263D01*
X1062513Y725383D01*
X1062484Y725501D01*
X1062452Y725619D01*
X1062415Y725736D01*
X1062375Y725851D01*
X1062331Y725965D01*
X1062283Y726077D01*
X1062232Y726188D01*
X1062177Y726297D01*
X1062119Y726405D01*
X1062057Y726510D01*
X1061992Y726613D01*
X1061924Y726715D01*
X1061852Y726814D01*
X1061778Y726910D01*
X1061700Y727005D01*
X1061619Y727096D01*
X1061536Y727186D01*
X1061450Y727272D01*
X1061360Y727355D01*
X1061269Y727436D01*
X1061174Y727514D01*
X1061078Y727588D01*
X1060979Y727660D01*
X1060877Y727728D01*
X1060774Y727793D01*
X1060669Y727855D01*
X1060561Y727913D01*
X1060452Y727968D01*
X1060341Y728019D01*
X1060229Y728067D01*
X1060115Y728111D01*
X1060000Y728151D01*
X1059883Y728188D01*
X1059765Y728220D01*
X1059647Y728249D01*
X1059527Y728275D01*
X1059407Y728296D01*
X1059286Y728314D01*
X1059165Y728327D01*
X1059043Y728337D01*
X1058921Y728343D01*
X1058799Y728345D01*
X1058677Y728343D01*
X1058555Y728337D01*
X1058433Y728327D01*
X1058312Y728314D01*
X1058191Y728296D01*
X1058071Y728275D01*
X1057951Y728249D01*
X1057833Y728220D01*
X1057715Y728188D01*
X1057598Y728151D01*
X1057483Y728111D01*
X1057369Y728067D01*
X1057257Y728019D01*
X1057146Y727968D01*
X1057037Y727913D01*
X1056929Y727855D01*
X1056824Y727793D01*
X1056721Y727728D01*
X1056619Y727660D01*
X1056520Y727588D01*
X1056424Y727514D01*
X1056329Y727436D01*
X1056238Y727355D01*
X1056148Y727272D01*
X1056062Y727186D01*
X1055979Y727096D01*
X1055898Y727005D01*
X1055820Y726910D01*
X1055746Y726814D01*
X1055674Y726715D01*
X1055606Y726613D01*
X1055541Y726510D01*
X1055479Y726405D01*
X1055421Y726297D01*
X1055366Y726188D01*
X1055315Y726077D01*
X1055267Y725965D01*
X1055223Y725851D01*
X1055183Y725736D01*
X1055146Y725619D01*
X1055114Y725501D01*
X1055085Y725383D01*
X1055059Y725263D01*
X1055038Y725143D01*
X1055020Y725022D01*
X1055007Y724901D01*
X1054997Y724779D01*
X1054991Y724657D01*
X1054989Y724535D01*
X1054991Y724413D01*
X1054997Y724291D01*
X1055007Y724169D01*
X1055020Y724048D01*
X1055038Y723927D01*
X1055059Y723807D01*
X1055085Y723687D01*
X1055114Y723569D01*
X1055146Y723451D01*
X1055183Y723334D01*
X1055223Y723219D01*
X1055267Y723105D01*
X1055315Y722993D01*
X1055366Y722882D01*
X1055421Y722773D01*
X1055479Y722665D01*
X1055541Y722560D01*
X1055606Y722457D01*
X1055674Y722355D01*
X1055746Y722256D01*
X1055820Y722160D01*
X1055898Y722065D01*
X1055979Y721974D01*
X1056062Y721884D01*
X1056148Y721798D01*
X1056238Y721715D01*
X1056329Y721634D01*
X1056424Y721556D01*
X1056520Y721482D01*
X1056619Y721410D01*
X1056721Y721342D01*
X1056824Y721277D01*
X1056929Y721215D01*
X1057037Y721157D01*
X1057146Y721102D01*
X1057257Y721051D01*
X1057369Y721003D01*
X1057483Y720959D01*
X1057598Y720919D01*
X1057715Y720882D01*
X1057833Y720850D01*
X1057951Y720821D01*
X1058071Y720795D01*
X1058191Y720774D01*
X1058312Y720756D01*
X1058433Y720743D01*
X1058555Y720733D01*
X1058677Y720727D01*
X1058799Y720725D01*
X1102417Y279223D02*
X1102295Y279221D01*
X1102173Y279215D01*
X1102051Y279205D01*
X1101930Y279192D01*
X1101809Y279174D01*
X1101689Y279153D01*
X1101569Y279127D01*
X1101451Y279098D01*
X1101333Y279066D01*
X1101216Y279029D01*
X1101101Y278989D01*
X1100987Y278945D01*
X1100875Y278897D01*
X1100764Y278846D01*
X1100655Y278791D01*
X1100547Y278733D01*
X1100442Y278671D01*
X1100339Y278606D01*
X1100237Y278538D01*
X1100138Y278466D01*
X1100042Y278392D01*
X1099947Y278314D01*
X1099856Y278233D01*
X1099766Y278150D01*
X1099680Y278064D01*
X1099597Y277974D01*
X1099516Y277883D01*
X1099438Y277788D01*
X1099364Y277692D01*
X1099292Y277593D01*
X1099224Y277491D01*
X1099159Y277388D01*
X1099097Y277283D01*
X1099039Y277175D01*
X1098984Y277066D01*
X1098933Y276955D01*
X1098885Y276843D01*
X1098841Y276729D01*
X1098801Y276614D01*
X1098764Y276497D01*
X1098732Y276379D01*
X1098703Y276261D01*
X1098677Y276141D01*
X1098656Y276021D01*
X1098638Y275900D01*
X1098625Y275779D01*
X1098615Y275657D01*
X1098609Y275535D01*
X1098607Y275413D01*
X1098609Y275291D01*
X1098615Y275169D01*
X1098625Y275047D01*
X1098638Y274926D01*
X1098656Y274805D01*
X1098677Y274685D01*
X1098703Y274565D01*
X1098732Y274447D01*
X1098764Y274329D01*
X1098801Y274212D01*
X1098841Y274097D01*
X1098885Y273983D01*
X1098933Y273871D01*
X1098984Y273760D01*
X1099039Y273651D01*
X1099097Y273543D01*
X1099159Y273438D01*
X1099224Y273335D01*
X1099292Y273233D01*
X1099364Y273134D01*
X1099438Y273038D01*
X1099516Y272943D01*
X1099597Y272852D01*
X1099680Y272762D01*
X1099766Y272676D01*
X1099856Y272593D01*
X1099947Y272512D01*
X1100042Y272434D01*
X1100138Y272360D01*
X1100237Y272288D01*
X1100339Y272220D01*
X1100442Y272155D01*
X1100547Y272093D01*
X1100655Y272035D01*
X1100764Y271980D01*
X1100875Y271929D01*
X1100987Y271881D01*
X1101101Y271837D01*
X1101216Y271797D01*
X1101333Y271760D01*
X1101451Y271728D01*
X1101569Y271699D01*
X1101689Y271673D01*
X1101809Y271652D01*
X1101930Y271634D01*
X1102051Y271621D01*
X1102173Y271611D01*
X1102295Y271605D01*
X1102417Y271603D01*
X1102539Y271605D01*
X1102661Y271611D01*
X1102783Y271621D01*
X1102904Y271634D01*
X1103025Y271652D01*
X1103145Y271673D01*
X1103265Y271699D01*
X1103383Y271728D01*
X1103501Y271760D01*
X1103618Y271797D01*
X1103733Y271837D01*
X1103847Y271881D01*
X1103959Y271929D01*
X1104070Y271980D01*
X1104179Y272035D01*
X1104287Y272093D01*
X1104392Y272155D01*
X1104495Y272220D01*
X1104597Y272288D01*
X1104696Y272360D01*
X1104792Y272434D01*
X1104887Y272512D01*
X1104978Y272593D01*
X1105068Y272676D01*
X1105154Y272762D01*
X1105237Y272852D01*
X1105318Y272943D01*
X1105396Y273038D01*
X1105470Y273134D01*
X1105542Y273233D01*
X1105610Y273335D01*
X1105675Y273438D01*
X1105737Y273543D01*
X1105795Y273651D01*
X1105850Y273760D01*
X1105901Y273871D01*
X1105949Y273983D01*
X1105993Y274097D01*
X1106033Y274212D01*
X1106070Y274329D01*
X1106102Y274447D01*
X1106131Y274565D01*
X1106157Y274685D01*
X1106178Y274805D01*
X1106196Y274926D01*
X1106209Y275047D01*
X1106219Y275169D01*
X1106225Y275291D01*
X1106227Y275413D01*
X1106225Y275535D01*
X1106219Y275657D01*
X1106209Y275779D01*
X1106196Y275900D01*
X1106178Y276021D01*
X1106157Y276141D01*
X1106131Y276261D01*
X1106102Y276379D01*
X1106070Y276497D01*
X1106033Y276614D01*
X1105993Y276729D01*
X1105949Y276843D01*
X1105901Y276955D01*
X1105850Y277066D01*
X1105795Y277175D01*
X1105737Y277283D01*
X1105675Y277388D01*
X1105610Y277491D01*
X1105542Y277593D01*
X1105470Y277692D01*
X1105396Y277788D01*
X1105318Y277883D01*
X1105237Y277974D01*
X1105154Y278064D01*
X1105068Y278150D01*
X1104978Y278233D01*
X1104887Y278314D01*
X1104792Y278392D01*
X1104696Y278466D01*
X1104597Y278538D01*
X1104495Y278606D01*
X1104392Y278671D01*
X1104287Y278733D01*
X1104179Y278791D01*
X1104070Y278846D01*
X1103959Y278897D01*
X1103847Y278945D01*
X1103733Y278989D01*
X1103618Y279029D01*
X1103501Y279066D01*
X1103383Y279098D01*
X1103265Y279127D01*
X1103145Y279153D01*
X1103025Y279174D01*
X1102904Y279192D01*
X1102783Y279205D01*
X1102661Y279215D01*
X1102539Y279221D01*
X1102417Y279223D01*
X1201039Y268605D02*
X1200917Y268603D01*
X1200795Y268597D01*
X1200673Y268587D01*
X1200552Y268574D01*
X1200431Y268556D01*
X1200311Y268535D01*
X1200191Y268509D01*
X1200073Y268480D01*
X1199955Y268448D01*
X1199838Y268411D01*
X1199723Y268371D01*
X1199609Y268327D01*
X1199497Y268279D01*
X1199386Y268228D01*
X1199277Y268173D01*
X1199169Y268115D01*
X1199064Y268053D01*
X1198961Y267988D01*
X1198859Y267920D01*
X1198760Y267848D01*
X1198664Y267774D01*
X1198569Y267696D01*
X1198478Y267615D01*
X1198388Y267532D01*
X1198302Y267446D01*
X1198219Y267356D01*
X1198138Y267265D01*
X1198060Y267170D01*
X1197986Y267074D01*
X1197914Y266975D01*
X1197846Y266873D01*
X1197781Y266770D01*
X1197719Y266665D01*
X1197661Y266557D01*
X1197606Y266448D01*
X1197555Y266337D01*
X1197507Y266225D01*
X1197463Y266111D01*
X1197423Y265996D01*
X1197386Y265879D01*
X1197354Y265761D01*
X1197325Y265643D01*
X1197299Y265523D01*
X1197278Y265403D01*
X1197260Y265282D01*
X1197247Y265161D01*
X1197237Y265039D01*
X1197231Y264917D01*
X1197229Y264795D01*
X1197231Y264673D01*
X1197237Y264551D01*
X1197247Y264429D01*
X1197260Y264308D01*
X1197278Y264187D01*
X1197299Y264067D01*
X1197325Y263947D01*
X1197354Y263829D01*
X1197386Y263711D01*
X1197423Y263594D01*
X1197463Y263479D01*
X1197507Y263365D01*
X1197555Y263253D01*
X1197606Y263142D01*
X1197661Y263033D01*
X1197719Y262925D01*
X1197781Y262820D01*
X1197846Y262717D01*
X1197914Y262615D01*
X1197986Y262516D01*
X1198060Y262420D01*
X1198138Y262325D01*
X1198219Y262234D01*
X1198302Y262144D01*
X1198388Y262058D01*
X1198478Y261975D01*
X1198569Y261894D01*
X1198664Y261816D01*
X1198760Y261742D01*
X1198859Y261670D01*
X1198961Y261602D01*
X1199064Y261537D01*
X1199169Y261475D01*
X1199277Y261417D01*
X1199386Y261362D01*
X1199497Y261311D01*
X1199609Y261263D01*
X1199723Y261219D01*
X1199838Y261179D01*
X1199955Y261142D01*
X1200073Y261110D01*
X1200191Y261081D01*
X1200311Y261055D01*
X1200431Y261034D01*
X1200552Y261016D01*
X1200673Y261003D01*
X1200795Y260993D01*
X1200917Y260987D01*
X1201039Y260985D01*
X1201161Y260987D01*
X1201283Y260993D01*
X1201405Y261003D01*
X1201526Y261016D01*
X1201647Y261034D01*
X1201767Y261055D01*
X1201887Y261081D01*
X1202005Y261110D01*
X1202123Y261142D01*
X1202240Y261179D01*
X1202355Y261219D01*
X1202469Y261263D01*
X1202581Y261311D01*
X1202692Y261362D01*
X1202801Y261417D01*
X1202909Y261475D01*
X1203014Y261537D01*
X1203117Y261602D01*
X1203219Y261670D01*
X1203318Y261742D01*
X1203414Y261816D01*
X1203509Y261894D01*
X1203600Y261975D01*
X1203690Y262058D01*
X1203776Y262144D01*
X1203859Y262234D01*
X1203940Y262325D01*
X1204018Y262420D01*
X1204092Y262516D01*
X1204164Y262615D01*
X1204232Y262717D01*
X1204297Y262820D01*
X1204359Y262925D01*
X1204417Y263033D01*
X1204472Y263142D01*
X1204523Y263253D01*
X1204571Y263365D01*
X1204615Y263479D01*
X1204655Y263594D01*
X1204692Y263711D01*
X1204724Y263829D01*
X1204753Y263947D01*
X1204779Y264067D01*
X1204800Y264187D01*
X1204818Y264308D01*
X1204831Y264429D01*
X1204841Y264551D01*
X1204847Y264673D01*
X1204849Y264795D01*
X1204847Y264917D01*
X1204841Y265039D01*
X1204831Y265161D01*
X1204818Y265282D01*
X1204800Y265403D01*
X1204779Y265523D01*
X1204753Y265643D01*
X1204724Y265761D01*
X1204692Y265879D01*
X1204655Y265996D01*
X1204615Y266111D01*
X1204571Y266225D01*
X1204523Y266337D01*
X1204472Y266448D01*
X1204417Y266557D01*
X1204359Y266665D01*
X1204297Y266770D01*
X1204232Y266873D01*
X1204164Y266975D01*
X1204092Y267074D01*
X1204018Y267170D01*
X1203940Y267265D01*
X1203859Y267356D01*
X1203776Y267446D01*
X1203690Y267532D01*
X1203600Y267615D01*
X1203509Y267696D01*
X1203414Y267774D01*
X1203318Y267848D01*
X1203219Y267920D01*
X1203117Y267988D01*
X1203014Y268053D01*
X1202909Y268115D01*
X1202801Y268173D01*
X1202692Y268228D01*
X1202581Y268279D01*
X1202469Y268327D01*
X1202355Y268371D01*
X1202240Y268411D01*
X1202123Y268448D01*
X1202005Y268480D01*
X1201887Y268509D01*
X1201767Y268535D01*
X1201647Y268556D01*
X1201526Y268574D01*
X1201405Y268587D01*
X1201283Y268597D01*
X1201161Y268603D01*
X1201039Y268605D01*
X1245489Y593725D02*
X1245611Y593727D01*
X1245733Y593733D01*
X1245855Y593743D01*
X1245976Y593756D01*
X1246097Y593774D01*
X1246217Y593795D01*
X1246337Y593821D01*
X1246455Y593850D01*
X1246573Y593882D01*
X1246690Y593919D01*
X1246805Y593959D01*
X1246919Y594003D01*
X1247031Y594051D01*
X1247142Y594102D01*
X1247251Y594157D01*
X1247359Y594215D01*
X1247464Y594277D01*
X1247567Y594342D01*
X1247669Y594410D01*
X1247768Y594482D01*
X1247864Y594556D01*
X1247959Y594634D01*
X1248050Y594715D01*
X1248140Y594798D01*
X1248226Y594884D01*
X1248309Y594974D01*
X1248390Y595065D01*
X1248468Y595160D01*
X1248542Y595256D01*
X1248614Y595355D01*
X1248682Y595457D01*
X1248747Y595560D01*
X1248809Y595665D01*
X1248867Y595773D01*
X1248922Y595882D01*
X1248973Y595993D01*
X1249021Y596105D01*
X1249065Y596219D01*
X1249105Y596334D01*
X1249142Y596451D01*
X1249174Y596569D01*
X1249203Y596687D01*
X1249229Y596807D01*
X1249250Y596927D01*
X1249268Y597048D01*
X1249281Y597169D01*
X1249291Y597291D01*
X1249297Y597413D01*
X1249299Y597535D01*
X1249297Y597657D01*
X1249291Y597779D01*
X1249281Y597901D01*
X1249268Y598022D01*
X1249250Y598143D01*
X1249229Y598263D01*
X1249203Y598383D01*
X1249174Y598501D01*
X1249142Y598619D01*
X1249105Y598736D01*
X1249065Y598851D01*
X1249021Y598965D01*
X1248973Y599077D01*
X1248922Y599188D01*
X1248867Y599297D01*
X1248809Y599405D01*
X1248747Y599510D01*
X1248682Y599613D01*
X1248614Y599715D01*
X1248542Y599814D01*
X1248468Y599910D01*
X1248390Y600005D01*
X1248309Y600096D01*
X1248226Y600186D01*
X1248140Y600272D01*
X1248050Y600355D01*
X1247959Y600436D01*
X1247864Y600514D01*
X1247768Y600588D01*
X1247669Y600660D01*
X1247567Y600728D01*
X1247464Y600793D01*
X1247359Y600855D01*
X1247251Y600913D01*
X1247142Y600968D01*
X1247031Y601019D01*
X1246919Y601067D01*
X1246805Y601111D01*
X1246690Y601151D01*
X1246573Y601188D01*
X1246455Y601220D01*
X1246337Y601249D01*
X1246217Y601275D01*
X1246097Y601296D01*
X1245976Y601314D01*
X1245855Y601327D01*
X1245733Y601337D01*
X1245611Y601343D01*
X1245489Y601345D01*
X1245367Y601343D01*
X1245245Y601337D01*
X1245123Y601327D01*
X1245002Y601314D01*
X1244881Y601296D01*
X1244761Y601275D01*
X1244641Y601249D01*
X1244523Y601220D01*
X1244405Y601188D01*
X1244288Y601151D01*
X1244173Y601111D01*
X1244059Y601067D01*
X1243947Y601019D01*
X1243836Y600968D01*
X1243727Y600913D01*
X1243619Y600855D01*
X1243514Y600793D01*
X1243411Y600728D01*
X1243309Y600660D01*
X1243210Y600588D01*
X1243114Y600514D01*
X1243019Y600436D01*
X1242928Y600355D01*
X1242838Y600272D01*
X1242752Y600186D01*
X1242669Y600096D01*
X1242588Y600005D01*
X1242510Y599910D01*
X1242436Y599814D01*
X1242364Y599715D01*
X1242296Y599613D01*
X1242231Y599510D01*
X1242169Y599405D01*
X1242111Y599297D01*
X1242056Y599188D01*
X1242005Y599077D01*
X1241957Y598965D01*
X1241913Y598851D01*
X1241873Y598736D01*
X1241836Y598619D01*
X1241804Y598501D01*
X1241775Y598383D01*
X1241749Y598263D01*
X1241728Y598143D01*
X1241710Y598022D01*
X1241697Y597901D01*
X1241687Y597779D01*
X1241681Y597657D01*
X1241679Y597535D01*
X1241681Y597413D01*
X1241687Y597291D01*
X1241697Y597169D01*
X1241710Y597048D01*
X1241728Y596927D01*
X1241749Y596807D01*
X1241775Y596687D01*
X1241804Y596569D01*
X1241836Y596451D01*
X1241873Y596334D01*
X1241913Y596219D01*
X1241957Y596105D01*
X1242005Y595993D01*
X1242056Y595882D01*
X1242111Y595773D01*
X1242169Y595665D01*
X1242231Y595560D01*
X1242296Y595457D01*
X1242364Y595355D01*
X1242436Y595256D01*
X1242510Y595160D01*
X1242588Y595065D01*
X1242669Y594974D01*
X1242752Y594884D01*
X1242838Y594798D01*
X1242928Y594715D01*
X1243019Y594634D01*
X1243114Y594556D01*
X1243210Y594482D01*
X1243309Y594410D01*
X1243411Y594342D01*
X1243514Y594277D01*
X1243619Y594215D01*
X1243727Y594157D01*
X1243836Y594102D01*
X1243947Y594051D01*
X1244059Y594003D01*
X1244173Y593959D01*
X1244288Y593919D01*
X1244405Y593882D01*
X1244523Y593850D01*
X1244641Y593821D01*
X1244761Y593795D01*
X1244881Y593774D01*
X1245002Y593756D01*
X1245123Y593743D01*
X1245245Y593733D01*
X1245367Y593727D01*
X1245489Y593725D01*
X1227709Y451485D02*
X1227831Y451483D01*
X1227953Y451477D01*
X1228075Y451467D01*
X1228196Y451454D01*
X1228317Y451436D01*
X1228437Y451415D01*
X1228557Y451389D01*
X1228675Y451360D01*
X1228793Y451328D01*
X1228910Y451291D01*
X1229025Y451251D01*
X1229139Y451207D01*
X1229251Y451159D01*
X1229362Y451108D01*
X1229471Y451053D01*
X1229579Y450995D01*
X1229684Y450933D01*
X1229787Y450868D01*
X1229889Y450800D01*
X1229988Y450728D01*
X1230084Y450654D01*
X1230179Y450576D01*
X1230270Y450495D01*
X1230360Y450412D01*
X1230446Y450326D01*
X1230529Y450236D01*
X1230610Y450145D01*
X1230688Y450050D01*
X1230762Y449954D01*
X1230834Y449855D01*
X1230902Y449753D01*
X1230967Y449650D01*
X1231029Y449545D01*
X1231087Y449437D01*
X1231142Y449328D01*
X1231193Y449217D01*
X1231241Y449105D01*
X1231285Y448991D01*
X1231325Y448876D01*
X1231362Y448759D01*
X1231394Y448641D01*
X1231423Y448523D01*
X1231449Y448403D01*
X1231470Y448283D01*
X1231488Y448162D01*
X1231501Y448041D01*
X1231511Y447919D01*
X1231517Y447797D01*
X1231519Y447675D01*
X1231517Y447553D01*
X1231511Y447431D01*
X1231501Y447309D01*
X1231488Y447188D01*
X1231470Y447067D01*
X1231449Y446947D01*
X1231423Y446827D01*
X1231394Y446709D01*
X1231362Y446591D01*
X1231325Y446474D01*
X1231285Y446359D01*
X1231241Y446245D01*
X1231193Y446133D01*
X1231142Y446022D01*
X1231087Y445913D01*
X1231029Y445805D01*
X1230967Y445700D01*
X1230902Y445597D01*
X1230834Y445495D01*
X1230762Y445396D01*
X1230688Y445300D01*
X1230610Y445205D01*
X1230529Y445114D01*
X1230446Y445024D01*
X1230360Y444938D01*
X1230270Y444855D01*
X1230179Y444774D01*
X1230084Y444696D01*
X1229988Y444622D01*
X1229889Y444550D01*
X1229787Y444482D01*
X1229684Y444417D01*
X1229579Y444355D01*
X1229471Y444297D01*
X1229362Y444242D01*
X1229251Y444191D01*
X1229139Y444143D01*
X1229025Y444099D01*
X1228910Y444059D01*
X1228793Y444022D01*
X1228675Y443990D01*
X1228557Y443961D01*
X1228437Y443935D01*
X1228317Y443914D01*
X1228196Y443896D01*
X1228075Y443883D01*
X1227953Y443873D01*
X1227831Y443867D01*
X1227709Y443865D01*
X1227587Y443867D01*
X1227465Y443873D01*
X1227343Y443883D01*
X1227222Y443896D01*
X1227101Y443914D01*
X1226981Y443935D01*
X1226861Y443961D01*
X1226743Y443990D01*
X1226625Y444022D01*
X1226508Y444059D01*
X1226393Y444099D01*
X1226279Y444143D01*
X1226167Y444191D01*
X1226056Y444242D01*
X1225947Y444297D01*
X1225839Y444355D01*
X1225734Y444417D01*
X1225631Y444482D01*
X1225529Y444550D01*
X1225430Y444622D01*
X1225334Y444696D01*
X1225239Y444774D01*
X1225148Y444855D01*
X1225058Y444938D01*
X1224972Y445024D01*
X1224889Y445114D01*
X1224808Y445205D01*
X1224730Y445300D01*
X1224656Y445396D01*
X1224584Y445495D01*
X1224516Y445597D01*
X1224451Y445700D01*
X1224389Y445805D01*
X1224331Y445913D01*
X1224276Y446022D01*
X1224225Y446133D01*
X1224177Y446245D01*
X1224133Y446359D01*
X1224093Y446474D01*
X1224056Y446591D01*
X1224024Y446709D01*
X1223995Y446827D01*
X1223969Y446947D01*
X1223948Y447067D01*
X1223930Y447188D01*
X1223917Y447309D01*
X1223907Y447431D01*
X1223901Y447553D01*
X1223899Y447675D01*
X1223901Y447797D01*
X1223907Y447919D01*
X1223917Y448041D01*
X1223930Y448162D01*
X1223948Y448283D01*
X1223969Y448403D01*
X1223995Y448523D01*
X1224024Y448641D01*
X1224056Y448759D01*
X1224093Y448876D01*
X1224133Y448991D01*
X1224177Y449105D01*
X1224225Y449217D01*
X1224276Y449328D01*
X1224331Y449437D01*
X1224389Y449545D01*
X1224451Y449650D01*
X1224516Y449753D01*
X1224584Y449855D01*
X1224656Y449954D01*
X1224730Y450050D01*
X1224808Y450145D01*
X1224889Y450236D01*
X1224972Y450326D01*
X1225058Y450412D01*
X1225148Y450495D01*
X1225239Y450576D01*
X1225334Y450654D01*
X1225430Y450728D01*
X1225529Y450800D01*
X1225631Y450868D01*
X1225734Y450933D01*
X1225839Y450995D01*
X1225947Y451053D01*
X1226056Y451108D01*
X1226167Y451159D01*
X1226279Y451207D01*
X1226393Y451251D01*
X1226508Y451291D01*
X1226625Y451328D01*
X1226743Y451360D01*
X1226861Y451389D01*
X1226981Y451415D01*
X1227101Y451436D01*
X1227222Y451454D01*
X1227343Y451467D01*
X1227465Y451477D01*
X1227587Y451483D01*
X1227709Y451485D01*
X1258189Y387985D02*
X1258311Y387983D01*
X1258433Y387977D01*
X1258555Y387967D01*
X1258676Y387954D01*
X1258797Y387936D01*
X1258917Y387915D01*
X1259037Y387889D01*
X1259155Y387860D01*
X1259273Y387828D01*
X1259390Y387791D01*
X1259505Y387751D01*
X1259619Y387707D01*
X1259731Y387659D01*
X1259842Y387608D01*
X1259951Y387553D01*
X1260059Y387495D01*
X1260164Y387433D01*
X1260267Y387368D01*
X1260369Y387300D01*
X1260468Y387228D01*
X1260564Y387154D01*
X1260659Y387076D01*
X1260750Y386995D01*
X1260840Y386912D01*
X1260926Y386826D01*
X1261009Y386736D01*
X1261090Y386645D01*
X1261168Y386550D01*
X1261242Y386454D01*
X1261314Y386355D01*
X1261382Y386253D01*
X1261447Y386150D01*
X1261509Y386045D01*
X1261567Y385937D01*
X1261622Y385828D01*
X1261673Y385717D01*
X1261721Y385605D01*
X1261765Y385491D01*
X1261805Y385376D01*
X1261842Y385259D01*
X1261874Y385141D01*
X1261903Y385023D01*
X1261929Y384903D01*
X1261950Y384783D01*
X1261968Y384662D01*
X1261981Y384541D01*
X1261991Y384419D01*
X1261997Y384297D01*
X1261999Y384175D01*
X1261997Y384053D01*
X1261991Y383931D01*
X1261981Y383809D01*
X1261968Y383688D01*
X1261950Y383567D01*
X1261929Y383447D01*
X1261903Y383327D01*
X1261874Y383209D01*
X1261842Y383091D01*
X1261805Y382974D01*
X1261765Y382859D01*
X1261721Y382745D01*
X1261673Y382633D01*
X1261622Y382522D01*
X1261567Y382413D01*
X1261509Y382305D01*
X1261447Y382200D01*
X1261382Y382097D01*
X1261314Y381995D01*
X1261242Y381896D01*
X1261168Y381800D01*
X1261090Y381705D01*
X1261009Y381614D01*
X1260926Y381524D01*
X1260840Y381438D01*
X1260750Y381355D01*
X1260659Y381274D01*
X1260564Y381196D01*
X1260468Y381122D01*
X1260369Y381050D01*
X1260267Y380982D01*
X1260164Y380917D01*
X1260059Y380855D01*
X1259951Y380797D01*
X1259842Y380742D01*
X1259731Y380691D01*
X1259619Y380643D01*
X1259505Y380599D01*
X1259390Y380559D01*
X1259273Y380522D01*
X1259155Y380490D01*
X1259037Y380461D01*
X1258917Y380435D01*
X1258797Y380414D01*
X1258676Y380396D01*
X1258555Y380383D01*
X1258433Y380373D01*
X1258311Y380367D01*
X1258189Y380365D01*
X1258067Y380367D01*
X1257945Y380373D01*
X1257823Y380383D01*
X1257702Y380396D01*
X1257581Y380414D01*
X1257461Y380435D01*
X1257341Y380461D01*
X1257223Y380490D01*
X1257105Y380522D01*
X1256988Y380559D01*
X1256873Y380599D01*
X1256759Y380643D01*
X1256647Y380691D01*
X1256536Y380742D01*
X1256427Y380797D01*
X1256319Y380855D01*
X1256214Y380917D01*
X1256111Y380982D01*
X1256009Y381050D01*
X1255910Y381122D01*
X1255814Y381196D01*
X1255719Y381274D01*
X1255628Y381355D01*
X1255538Y381438D01*
X1255452Y381524D01*
X1255369Y381614D01*
X1255288Y381705D01*
X1255210Y381800D01*
X1255136Y381896D01*
X1255064Y381995D01*
X1254996Y382097D01*
X1254931Y382200D01*
X1254869Y382305D01*
X1254811Y382413D01*
X1254756Y382522D01*
X1254705Y382633D01*
X1254657Y382745D01*
X1254613Y382859D01*
X1254573Y382974D01*
X1254536Y383091D01*
X1254504Y383209D01*
X1254475Y383327D01*
X1254449Y383447D01*
X1254428Y383567D01*
X1254410Y383688D01*
X1254397Y383809D01*
X1254387Y383931D01*
X1254381Y384053D01*
X1254379Y384175D01*
X1254381Y384297D01*
X1254387Y384419D01*
X1254397Y384541D01*
X1254410Y384662D01*
X1254428Y384783D01*
X1254449Y384903D01*
X1254475Y385023D01*
X1254504Y385141D01*
X1254536Y385259D01*
X1254573Y385376D01*
X1254613Y385491D01*
X1254657Y385605D01*
X1254705Y385717D01*
X1254756Y385828D01*
X1254811Y385937D01*
X1254869Y386045D01*
X1254931Y386150D01*
X1254996Y386253D01*
X1255064Y386355D01*
X1255136Y386454D01*
X1255210Y386550D01*
X1255288Y386645D01*
X1255369Y386736D01*
X1255452Y386826D01*
X1255538Y386912D01*
X1255628Y386995D01*
X1255719Y387076D01*
X1255814Y387154D01*
X1255910Y387228D01*
X1256009Y387300D01*
X1256111Y387368D01*
X1256214Y387433D01*
X1256319Y387495D01*
X1256427Y387553D01*
X1256536Y387608D01*
X1256647Y387659D01*
X1256759Y387707D01*
X1256873Y387751D01*
X1256988Y387791D01*
X1257105Y387828D01*
X1257223Y387860D01*
X1257341Y387889D01*
X1257461Y387915D01*
X1257581Y387936D01*
X1257702Y387954D01*
X1257823Y387967D01*
X1257945Y387977D01*
X1258067Y387983D01*
X1258189Y387985D01*
X1258189Y327025D02*
X1258311Y327023D01*
X1258433Y327017D01*
X1258555Y327007D01*
X1258676Y326994D01*
X1258797Y326976D01*
X1258917Y326955D01*
X1259037Y326929D01*
X1259155Y326900D01*
X1259273Y326868D01*
X1259390Y326831D01*
X1259505Y326791D01*
X1259619Y326747D01*
X1259731Y326699D01*
X1259842Y326648D01*
X1259951Y326593D01*
X1260059Y326535D01*
X1260164Y326473D01*
X1260267Y326408D01*
X1260369Y326340D01*
X1260468Y326268D01*
X1260564Y326194D01*
X1260659Y326116D01*
X1260750Y326035D01*
X1260840Y325952D01*
X1260926Y325866D01*
X1261009Y325776D01*
X1261090Y325685D01*
X1261168Y325590D01*
X1261242Y325494D01*
X1261314Y325395D01*
X1261382Y325293D01*
X1261447Y325190D01*
X1261509Y325085D01*
X1261567Y324977D01*
X1261622Y324868D01*
X1261673Y324757D01*
X1261721Y324645D01*
X1261765Y324531D01*
X1261805Y324416D01*
X1261842Y324299D01*
X1261874Y324181D01*
X1261903Y324063D01*
X1261929Y323943D01*
X1261950Y323823D01*
X1261968Y323702D01*
X1261981Y323581D01*
X1261991Y323459D01*
X1261997Y323337D01*
X1261999Y323215D01*
X1261997Y323093D01*
X1261991Y322971D01*
X1261981Y322849D01*
X1261968Y322728D01*
X1261950Y322607D01*
X1261929Y322487D01*
X1261903Y322367D01*
X1261874Y322249D01*
X1261842Y322131D01*
X1261805Y322014D01*
X1261765Y321899D01*
X1261721Y321785D01*
X1261673Y321673D01*
X1261622Y321562D01*
X1261567Y321453D01*
X1261509Y321345D01*
X1261447Y321240D01*
X1261382Y321137D01*
X1261314Y321035D01*
X1261242Y320936D01*
X1261168Y320840D01*
X1261090Y320745D01*
X1261009Y320654D01*
X1260926Y320564D01*
X1260840Y320478D01*
X1260750Y320395D01*
X1260659Y320314D01*
X1260564Y320236D01*
X1260468Y320162D01*
X1260369Y320090D01*
X1260267Y320022D01*
X1260164Y319957D01*
X1260059Y319895D01*
X1259951Y319837D01*
X1259842Y319782D01*
X1259731Y319731D01*
X1259619Y319683D01*
X1259505Y319639D01*
X1259390Y319599D01*
X1259273Y319562D01*
X1259155Y319530D01*
X1259037Y319501D01*
X1258917Y319475D01*
X1258797Y319454D01*
X1258676Y319436D01*
X1258555Y319423D01*
X1258433Y319413D01*
X1258311Y319407D01*
X1258189Y319405D01*
X1258067Y319407D01*
X1257945Y319413D01*
X1257823Y319423D01*
X1257702Y319436D01*
X1257581Y319454D01*
X1257461Y319475D01*
X1257341Y319501D01*
X1257223Y319530D01*
X1257105Y319562D01*
X1256988Y319599D01*
X1256873Y319639D01*
X1256759Y319683D01*
X1256647Y319731D01*
X1256536Y319782D01*
X1256427Y319837D01*
X1256319Y319895D01*
X1256214Y319957D01*
X1256111Y320022D01*
X1256009Y320090D01*
X1255910Y320162D01*
X1255814Y320236D01*
X1255719Y320314D01*
X1255628Y320395D01*
X1255538Y320478D01*
X1255452Y320564D01*
X1255369Y320654D01*
X1255288Y320745D01*
X1255210Y320840D01*
X1255136Y320936D01*
X1255064Y321035D01*
X1254996Y321137D01*
X1254931Y321240D01*
X1254869Y321345D01*
X1254811Y321453D01*
X1254756Y321562D01*
X1254705Y321673D01*
X1254657Y321785D01*
X1254613Y321899D01*
X1254573Y322014D01*
X1254536Y322131D01*
X1254504Y322249D01*
X1254475Y322367D01*
X1254449Y322487D01*
X1254428Y322607D01*
X1254410Y322728D01*
X1254397Y322849D01*
X1254387Y322971D01*
X1254381Y323093D01*
X1254379Y323215D01*
X1254381Y323337D01*
X1254387Y323459D01*
X1254397Y323581D01*
X1254410Y323702D01*
X1254428Y323823D01*
X1254449Y323943D01*
X1254475Y324063D01*
X1254504Y324181D01*
X1254536Y324299D01*
X1254573Y324416D01*
X1254613Y324531D01*
X1254657Y324645D01*
X1254705Y324757D01*
X1254756Y324868D01*
X1254811Y324977D01*
X1254869Y325085D01*
X1254931Y325190D01*
X1254996Y325293D01*
X1255064Y325395D01*
X1255136Y325494D01*
X1255210Y325590D01*
X1255288Y325685D01*
X1255369Y325776D01*
X1255452Y325866D01*
X1255538Y325952D01*
X1255628Y326035D01*
X1255719Y326116D01*
X1255814Y326194D01*
X1255910Y326268D01*
X1256009Y326340D01*
X1256111Y326408D01*
X1256214Y326473D01*
X1256319Y326535D01*
X1256427Y326593D01*
X1256536Y326648D01*
X1256647Y326699D01*
X1256759Y326747D01*
X1256873Y326791D01*
X1256988Y326831D01*
X1257105Y326868D01*
X1257223Y326900D01*
X1257341Y326929D01*
X1257461Y326955D01*
X1257581Y326976D01*
X1257702Y326994D01*
X1257823Y327007D01*
X1257945Y327017D01*
X1258067Y327023D01*
X1258189Y327025D01*
X757936Y542394D02*
X758058Y542396D01*
X758180Y542402D01*
X758302Y542412D01*
X758423Y542425D01*
X758544Y542443D01*
X758664Y542464D01*
X758784Y542490D01*
X758902Y542519D01*
X759020Y542551D01*
X759137Y542588D01*
X759252Y542628D01*
X759366Y542672D01*
X759478Y542720D01*
X759589Y542771D01*
X759698Y542826D01*
X759806Y542884D01*
X759911Y542946D01*
X760014Y543011D01*
X760116Y543079D01*
X760215Y543151D01*
X760311Y543225D01*
X760406Y543303D01*
X760497Y543384D01*
X760587Y543467D01*
X760673Y543553D01*
X760756Y543643D01*
X760837Y543734D01*
X760915Y543829D01*
X760989Y543925D01*
X761061Y544024D01*
X761129Y544126D01*
X761194Y544229D01*
X761256Y544334D01*
X761314Y544442D01*
X761369Y544551D01*
X761420Y544662D01*
X761468Y544774D01*
X761512Y544888D01*
X761552Y545003D01*
X761589Y545120D01*
X761621Y545238D01*
X761650Y545356D01*
X761676Y545476D01*
X761697Y545596D01*
X761715Y545717D01*
X761728Y545838D01*
X761738Y545960D01*
X761744Y546082D01*
X761746Y546204D01*
X761744Y546326D01*
X761738Y546448D01*
X761728Y546570D01*
X761715Y546691D01*
X761697Y546812D01*
X761676Y546932D01*
X761650Y547052D01*
X761621Y547170D01*
X761589Y547288D01*
X761552Y547405D01*
X761512Y547520D01*
X761468Y547634D01*
X761420Y547746D01*
X761369Y547857D01*
X761314Y547966D01*
X761256Y548074D01*
X761194Y548179D01*
X761129Y548282D01*
X761061Y548384D01*
X760989Y548483D01*
X760915Y548579D01*
X760837Y548674D01*
X760756Y548765D01*
X760673Y548855D01*
X760587Y548941D01*
X760497Y549024D01*
X760406Y549105D01*
X760311Y549183D01*
X760215Y549257D01*
X760116Y549329D01*
X760014Y549397D01*
X759911Y549462D01*
X759806Y549524D01*
X759698Y549582D01*
X759589Y549637D01*
X759478Y549688D01*
X759366Y549736D01*
X759252Y549780D01*
X759137Y549820D01*
X759020Y549857D01*
X758902Y549889D01*
X758784Y549918D01*
X758664Y549944D01*
X758544Y549965D01*
X758423Y549983D01*
X758302Y549996D01*
X758180Y550006D01*
X758058Y550012D01*
X757936Y550014D01*
X757814Y550012D01*
X757692Y550006D01*
X757570Y549996D01*
X757449Y549983D01*
X757328Y549965D01*
X757208Y549944D01*
X757088Y549918D01*
X756970Y549889D01*
X756852Y549857D01*
X756735Y549820D01*
X756620Y549780D01*
X756506Y549736D01*
X756394Y549688D01*
X756283Y549637D01*
X756174Y549582D01*
X756066Y549524D01*
X755961Y549462D01*
X755858Y549397D01*
X755756Y549329D01*
X755657Y549257D01*
X755561Y549183D01*
X755466Y549105D01*
X755375Y549024D01*
X755285Y548941D01*
X755199Y548855D01*
X755116Y548765D01*
X755035Y548674D01*
X754957Y548579D01*
X754883Y548483D01*
X754811Y548384D01*
X754743Y548282D01*
X754678Y548179D01*
X754616Y548074D01*
X754558Y547966D01*
X754503Y547857D01*
X754452Y547746D01*
X754404Y547634D01*
X754360Y547520D01*
X754320Y547405D01*
X754283Y547288D01*
X754251Y547170D01*
X754222Y547052D01*
X754196Y546932D01*
X754175Y546812D01*
X754157Y546691D01*
X754144Y546570D01*
X754134Y546448D01*
X754128Y546326D01*
X754126Y546204D01*
X754128Y546082D01*
X754134Y545960D01*
X754144Y545838D01*
X754157Y545717D01*
X754175Y545596D01*
X754196Y545476D01*
X754222Y545356D01*
X754251Y545238D01*
X754283Y545120D01*
X754320Y545003D01*
X754360Y544888D01*
X754404Y544774D01*
X754452Y544662D01*
X754503Y544551D01*
X754558Y544442D01*
X754616Y544334D01*
X754678Y544229D01*
X754743Y544126D01*
X754811Y544024D01*
X754883Y543925D01*
X754957Y543829D01*
X755035Y543734D01*
X755116Y543643D01*
X755199Y543553D01*
X755285Y543467D01*
X755375Y543384D01*
X755466Y543303D01*
X755561Y543225D01*
X755657Y543151D01*
X755756Y543079D01*
X755858Y543011D01*
X755961Y542946D01*
X756066Y542884D01*
X756174Y542826D01*
X756283Y542771D01*
X756394Y542720D01*
X756506Y542672D01*
X756620Y542628D01*
X756735Y542588D01*
X756852Y542551D01*
X756970Y542519D01*
X757088Y542490D01*
X757208Y542464D01*
X757328Y542443D01*
X757449Y542425D01*
X757570Y542412D01*
X757692Y542402D01*
X757814Y542396D01*
X757936Y542394D01*
X704723Y542726D02*
X704845Y542728D01*
X704967Y542734D01*
X705089Y542744D01*
X705210Y542757D01*
X705331Y542775D01*
X705451Y542796D01*
X705571Y542822D01*
X705689Y542851D01*
X705807Y542883D01*
X705924Y542920D01*
X706039Y542960D01*
X706153Y543004D01*
X706265Y543052D01*
X706376Y543103D01*
X706485Y543158D01*
X706593Y543216D01*
X706698Y543278D01*
X706801Y543343D01*
X706903Y543411D01*
X707002Y543483D01*
X707098Y543557D01*
X707193Y543635D01*
X707284Y543716D01*
X707374Y543799D01*
X707460Y543885D01*
X707543Y543975D01*
X707624Y544066D01*
X707702Y544161D01*
X707776Y544257D01*
X707848Y544356D01*
X707916Y544458D01*
X707981Y544561D01*
X708043Y544666D01*
X708101Y544774D01*
X708156Y544883D01*
X708207Y544994D01*
X708255Y545106D01*
X708299Y545220D01*
X708339Y545335D01*
X708376Y545452D01*
X708408Y545570D01*
X708437Y545688D01*
X708463Y545808D01*
X708484Y545928D01*
X708502Y546049D01*
X708515Y546170D01*
X708525Y546292D01*
X708531Y546414D01*
X708533Y546536D01*
X708531Y546658D01*
X708525Y546780D01*
X708515Y546902D01*
X708502Y547023D01*
X708484Y547144D01*
X708463Y547264D01*
X708437Y547384D01*
X708408Y547502D01*
X708376Y547620D01*
X708339Y547737D01*
X708299Y547852D01*
X708255Y547966D01*
X708207Y548078D01*
X708156Y548189D01*
X708101Y548298D01*
X708043Y548406D01*
X707981Y548511D01*
X707916Y548614D01*
X707848Y548716D01*
X707776Y548815D01*
X707702Y548911D01*
X707624Y549006D01*
X707543Y549097D01*
X707460Y549187D01*
X707374Y549273D01*
X707284Y549356D01*
X707193Y549437D01*
X707098Y549515D01*
X707002Y549589D01*
X706903Y549661D01*
X706801Y549729D01*
X706698Y549794D01*
X706593Y549856D01*
X706485Y549914D01*
X706376Y549969D01*
X706265Y550020D01*
X706153Y550068D01*
X706039Y550112D01*
X705924Y550152D01*
X705807Y550189D01*
X705689Y550221D01*
X705571Y550250D01*
X705451Y550276D01*
X705331Y550297D01*
X705210Y550315D01*
X705089Y550328D01*
X704967Y550338D01*
X704845Y550344D01*
X704723Y550346D01*
X704601Y550344D01*
X704479Y550338D01*
X704357Y550328D01*
X704236Y550315D01*
X704115Y550297D01*
X703995Y550276D01*
X703875Y550250D01*
X703757Y550221D01*
X703639Y550189D01*
X703522Y550152D01*
X703407Y550112D01*
X703293Y550068D01*
X703181Y550020D01*
X703070Y549969D01*
X702961Y549914D01*
X702853Y549856D01*
X702748Y549794D01*
X702645Y549729D01*
X702543Y549661D01*
X702444Y549589D01*
X702348Y549515D01*
X702253Y549437D01*
X702162Y549356D01*
X702072Y549273D01*
X701986Y549187D01*
X701903Y549097D01*
X701822Y549006D01*
X701744Y548911D01*
X701670Y548815D01*
X701598Y548716D01*
X701530Y548614D01*
X701465Y548511D01*
X701403Y548406D01*
X701345Y548298D01*
X701290Y548189D01*
X701239Y548078D01*
X701191Y547966D01*
X701147Y547852D01*
X701107Y547737D01*
X701070Y547620D01*
X701038Y547502D01*
X701009Y547384D01*
X700983Y547264D01*
X700962Y547144D01*
X700944Y547023D01*
X700931Y546902D01*
X700921Y546780D01*
X700915Y546658D01*
X700913Y546536D01*
X700915Y546414D01*
X700921Y546292D01*
X700931Y546170D01*
X700944Y546049D01*
X700962Y545928D01*
X700983Y545808D01*
X701009Y545688D01*
X701038Y545570D01*
X701070Y545452D01*
X701107Y545335D01*
X701147Y545220D01*
X701191Y545106D01*
X701239Y544994D01*
X701290Y544883D01*
X701345Y544774D01*
X701403Y544666D01*
X701465Y544561D01*
X701530Y544458D01*
X701598Y544356D01*
X701670Y544257D01*
X701744Y544161D01*
X701822Y544066D01*
X701903Y543975D01*
X701986Y543885D01*
X702072Y543799D01*
X702162Y543716D01*
X702253Y543635D01*
X702348Y543557D01*
X702444Y543483D01*
X702543Y543411D01*
X702645Y543343D01*
X702748Y543278D01*
X702853Y543216D01*
X702961Y543158D01*
X703070Y543103D01*
X703181Y543052D01*
X703293Y543004D01*
X703407Y542960D01*
X703522Y542920D01*
X703639Y542883D01*
X703757Y542851D01*
X703875Y542822D01*
X703995Y542796D01*
X704115Y542775D01*
X704236Y542757D01*
X704357Y542744D01*
X704479Y542734D01*
X704601Y542728D01*
X704723Y542726D01*
X650852Y542956D02*
X650974Y542958D01*
X651096Y542964D01*
X651218Y542974D01*
X651339Y542987D01*
X651460Y543005D01*
X651580Y543026D01*
X651700Y543052D01*
X651818Y543081D01*
X651936Y543113D01*
X652053Y543150D01*
X652168Y543190D01*
X652282Y543234D01*
X652394Y543282D01*
X652505Y543333D01*
X652614Y543388D01*
X652722Y543446D01*
X652827Y543508D01*
X652930Y543573D01*
X653032Y543641D01*
X653131Y543713D01*
X653227Y543787D01*
X653322Y543865D01*
X653413Y543946D01*
X653503Y544029D01*
X653589Y544115D01*
X653672Y544205D01*
X653753Y544296D01*
X653831Y544391D01*
X653905Y544487D01*
X653977Y544586D01*
X654045Y544688D01*
X654110Y544791D01*
X654172Y544896D01*
X654230Y545004D01*
X654285Y545113D01*
X654336Y545224D01*
X654384Y545336D01*
X654428Y545450D01*
X654468Y545565D01*
X654505Y545682D01*
X654537Y545800D01*
X654566Y545918D01*
X654592Y546038D01*
X654613Y546158D01*
X654631Y546279D01*
X654644Y546400D01*
X654654Y546522D01*
X654660Y546644D01*
X654662Y546766D01*
X654660Y546888D01*
X654654Y547010D01*
X654644Y547132D01*
X654631Y547253D01*
X654613Y547374D01*
X654592Y547494D01*
X654566Y547614D01*
X654537Y547732D01*
X654505Y547850D01*
X654468Y547967D01*
X654428Y548082D01*
X654384Y548196D01*
X654336Y548308D01*
X654285Y548419D01*
X654230Y548528D01*
X654172Y548636D01*
X654110Y548741D01*
X654045Y548844D01*
X653977Y548946D01*
X653905Y549045D01*
X653831Y549141D01*
X653753Y549236D01*
X653672Y549327D01*
X653589Y549417D01*
X653503Y549503D01*
X653413Y549586D01*
X653322Y549667D01*
X653227Y549745D01*
X653131Y549819D01*
X653032Y549891D01*
X652930Y549959D01*
X652827Y550024D01*
X652722Y550086D01*
X652614Y550144D01*
X652505Y550199D01*
X652394Y550250D01*
X652282Y550298D01*
X652168Y550342D01*
X652053Y550382D01*
X651936Y550419D01*
X651818Y550451D01*
X651700Y550480D01*
X651580Y550506D01*
X651460Y550527D01*
X651339Y550545D01*
X651218Y550558D01*
X651096Y550568D01*
X650974Y550574D01*
X650852Y550576D01*
X650730Y550574D01*
X650608Y550568D01*
X650486Y550558D01*
X650365Y550545D01*
X650244Y550527D01*
X650124Y550506D01*
X650004Y550480D01*
X649886Y550451D01*
X649768Y550419D01*
X649651Y550382D01*
X649536Y550342D01*
X649422Y550298D01*
X649310Y550250D01*
X649199Y550199D01*
X649090Y550144D01*
X648982Y550086D01*
X648877Y550024D01*
X648774Y549959D01*
X648672Y549891D01*
X648573Y549819D01*
X648477Y549745D01*
X648382Y549667D01*
X648291Y549586D01*
X648201Y549503D01*
X648115Y549417D01*
X648032Y549327D01*
X647951Y549236D01*
X647873Y549141D01*
X647799Y549045D01*
X647727Y548946D01*
X647659Y548844D01*
X647594Y548741D01*
X647532Y548636D01*
X647474Y548528D01*
X647419Y548419D01*
X647368Y548308D01*
X647320Y548196D01*
X647276Y548082D01*
X647236Y547967D01*
X647199Y547850D01*
X647167Y547732D01*
X647138Y547614D01*
X647112Y547494D01*
X647091Y547374D01*
X647073Y547253D01*
X647060Y547132D01*
X647050Y547010D01*
X647044Y546888D01*
X647042Y546766D01*
X647044Y546644D01*
X647050Y546522D01*
X647060Y546400D01*
X647073Y546279D01*
X647091Y546158D01*
X647112Y546038D01*
X647138Y545918D01*
X647167Y545800D01*
X647199Y545682D01*
X647236Y545565D01*
X647276Y545450D01*
X647320Y545336D01*
X647368Y545224D01*
X647419Y545113D01*
X647474Y545004D01*
X647532Y544896D01*
X647594Y544791D01*
X647659Y544688D01*
X647727Y544586D01*
X647799Y544487D01*
X647873Y544391D01*
X647951Y544296D01*
X648032Y544205D01*
X648115Y544115D01*
X648201Y544029D01*
X648291Y543946D01*
X648382Y543865D01*
X648477Y543787D01*
X648573Y543713D01*
X648672Y543641D01*
X648774Y543573D01*
X648877Y543508D01*
X648982Y543446D01*
X649090Y543388D01*
X649199Y543333D01*
X649310Y543282D01*
X649422Y543234D01*
X649536Y543190D01*
X649651Y543150D01*
X649768Y543113D01*
X649886Y543081D01*
X650004Y543052D01*
X650124Y543026D01*
X650244Y543005D01*
X650365Y542987D01*
X650486Y542974D01*
X650608Y542964D01*
X650730Y542958D01*
X650852Y542956D01*
M02*
