G04 EAGLE Gerber RS-274X export*
G75*
%MOMM*%
%FSLAX34Y34*%
%LPD*%
%INSoldermask Top*%
%IPPOS*%
%AMOC8*
5,1,8,0,0,1.08239X$1,22.5*%
G01*
G04 Define Apertures*
%ADD10C,1.253200*%
%ADD11R,1.295400X2.895600*%
%ADD12R,1.402400X0.855600*%
%ADD13R,0.855600X1.752400*%
%ADD14R,0.952400X0.655600*%
%ADD15R,0.604800X0.702400*%
%ADD16R,0.863600X1.041400*%
%ADD17R,1.778000X1.828800*%
%ADD18R,1.828800X1.778000*%
%ADD19R,1.003200X1.003200*%
%ADD20R,1.303200X1.403200*%
%ADD21C,1.917700*%
%ADD22C,1.853200*%
%ADD23R,2.362200X1.168400*%
%ADD24R,5.892800X1.803400*%
%ADD25R,0.914400X1.041400*%
%ADD26R,1.041400X0.914400*%
%ADD27R,1.105600X1.752400*%
%ADD28R,1.117600X1.905000*%
%ADD29R,1.905000X1.117600*%
%ADD30R,1.752400X1.105600*%
%ADD31R,0.711200X0.711200*%
%ADD32R,1.092200X1.600200*%
%ADD33R,1.611200X1.611200*%
%ADD34C,1.611200*%
%ADD35R,0.876300X0.660400*%
%ADD36R,0.652400X0.605600*%
%ADD37R,1.168400X0.711200*%
%ADD38R,0.711200X1.168400*%
%ADD39R,0.812800X0.457200*%
%ADD40R,0.914400X1.498600*%
%ADD41R,3.603200X2.053200*%
%ADD42R,1.041400X0.863600*%
%ADD43R,1.117600X1.752600*%
%ADD44R,1.752400X0.855600*%
%ADD45C,0.269722*%
%ADD46R,2.803200X2.803200*%
%ADD47R,1.063200X2.023200*%
%ADD48R,2.703200X1.603200*%
%ADD49R,1.853200X0.803200*%
%ADD50R,0.855600X1.402400*%
%ADD51C,0.959600*%
%ADD52C,1.703200*%
%ADD53C,1.259600*%
D10*
X988822Y823595D03*
X889445Y823595D03*
X988822Y93409D03*
X889445Y93409D03*
D11*
X1212215Y96901D03*
X1212215Y149987D03*
D12*
X784262Y286983D03*
X784262Y303507D03*
D13*
X742023Y328041D03*
X770547Y328041D03*
D14*
X736480Y166248D03*
X736480Y180772D03*
D15*
X780692Y189732D03*
X772176Y189732D03*
D12*
X837761Y155502D03*
X837761Y172026D03*
X856805Y155558D03*
X856805Y172082D03*
X808016Y136024D03*
X808016Y119500D03*
D16*
X758782Y187154D03*
X745320Y187154D03*
D17*
X599131Y197251D03*
X642311Y197251D03*
X711073Y197485D03*
X667893Y197485D03*
D18*
X1193292Y698627D03*
X1193292Y741807D03*
X1193419Y625221D03*
X1193419Y668401D03*
X1267079Y509651D03*
X1267079Y552831D03*
X1206627Y407035D03*
X1206627Y450215D03*
X1205230Y341376D03*
X1205230Y384556D03*
X694817Y507111D03*
X694817Y550291D03*
X646684Y446786D03*
X646684Y489966D03*
D17*
X643396Y354800D03*
X600216Y354800D03*
D19*
X1249679Y245745D03*
X1233679Y245745D03*
D20*
X1156929Y239807D03*
X1135929Y239807D03*
D21*
X1267415Y136341D03*
X1267415Y110941D03*
X598735Y576136D03*
X598735Y601536D03*
X599299Y517673D03*
X599299Y543073D03*
X658353Y515503D03*
X658353Y540903D03*
X599878Y457666D03*
X599878Y483066D03*
X634616Y318935D03*
X609216Y318935D03*
X607695Y161671D03*
X633095Y161671D03*
X701802Y161925D03*
X676402Y161925D03*
X767150Y253759D03*
X767150Y228359D03*
X1199833Y300355D03*
X1199833Y274955D03*
X1102417Y279908D03*
X1102417Y305308D03*
X1245489Y700405D03*
X1245489Y725805D03*
X1058799Y756285D03*
X1058799Y781685D03*
X1102417Y243663D03*
X1102417Y218263D03*
X1201039Y233045D03*
X1201039Y207645D03*
D22*
X620693Y97910D03*
X646093Y97910D03*
X671493Y97910D03*
X696893Y97910D03*
X1087463Y101346D03*
X1112863Y101346D03*
X1138263Y101346D03*
X1087463Y144770D03*
X1112863Y144770D03*
X1138263Y144770D03*
D21*
X1245489Y629285D03*
X1245489Y654685D03*
X1227709Y479425D03*
X1227709Y504825D03*
X1258189Y415925D03*
X1258189Y441325D03*
X1258189Y354965D03*
X1258189Y380365D03*
X757936Y577954D03*
X757936Y603354D03*
X704723Y578286D03*
X704723Y603686D03*
X650852Y578516D03*
X650852Y603916D03*
D23*
X716915Y310261D03*
X716915Y273939D03*
D24*
X831856Y187149D03*
X831856Y234139D03*
D25*
X1117092Y685673D03*
X1104138Y685673D03*
D26*
X704342Y234188D03*
X704342Y247142D03*
D25*
X739648Y85598D03*
X726694Y85598D03*
X1117600Y615442D03*
X1104646Y615442D03*
X1219581Y553847D03*
X1232535Y553847D03*
X1129030Y401574D03*
X1116076Y401574D03*
X1128268Y335026D03*
X1115314Y335026D03*
D26*
X763221Y555879D03*
X763221Y542925D03*
D25*
X730631Y489968D03*
X717677Y489968D03*
X616006Y410465D03*
X603052Y410465D03*
D26*
X594732Y282566D03*
X594732Y295520D03*
D27*
X1118801Y636905D03*
X1092777Y636905D03*
D28*
X1238885Y596647D03*
X1211453Y596647D03*
D27*
X1238181Y573405D03*
X1212157Y573405D03*
D28*
X1130173Y686562D03*
X1157605Y686562D03*
X1130173Y623183D03*
X1157605Y623183D03*
X1215113Y534283D03*
X1242545Y534283D03*
X1132205Y443865D03*
X1104773Y443865D03*
D27*
X1131501Y421005D03*
X1105477Y421005D03*
D28*
X1142873Y407283D03*
X1170305Y407283D03*
X1132205Y381762D03*
X1104773Y381762D03*
X1147953Y336163D03*
X1175385Y336163D03*
D27*
X1131501Y359285D03*
X1105477Y359285D03*
D29*
X784860Y542417D03*
X784860Y569849D03*
X732028Y568960D03*
X732028Y596392D03*
X677672Y569595D03*
X677672Y597027D03*
X625094Y567436D03*
X625094Y594868D03*
X628904Y507746D03*
X628904Y535178D03*
X759714Y528828D03*
X759714Y501396D03*
D30*
X782574Y528124D03*
X782574Y502100D03*
D28*
X747092Y550652D03*
X719660Y550652D03*
D29*
X759714Y489458D03*
X759714Y462026D03*
D30*
X782574Y488355D03*
X782574Y462331D03*
D28*
X733552Y467975D03*
X706120Y467975D03*
D29*
X640334Y423418D03*
X640334Y395986D03*
D30*
X663194Y422714D03*
X663194Y396690D03*
D28*
X623626Y429169D03*
X596194Y429169D03*
X616712Y266065D03*
X644144Y266065D03*
D27*
X617135Y288975D03*
X643159Y288975D03*
D29*
X594243Y269905D03*
X594243Y242473D03*
D28*
X686689Y265430D03*
X659257Y265430D03*
D27*
X685604Y288290D03*
X659580Y288290D03*
D29*
X728224Y226949D03*
X728224Y254381D03*
D28*
X1119505Y729424D03*
X1092073Y729424D03*
D29*
X1256919Y196469D03*
X1256919Y223901D03*
X1159510Y190119D03*
X1159510Y217551D03*
X1135888Y217170D03*
X1135888Y189738D03*
X1231519Y223901D03*
X1231519Y196469D03*
D27*
X1119565Y706564D03*
X1093541Y706564D03*
D31*
X748947Y91412D03*
X748947Y99286D03*
D29*
X731901Y97409D03*
X731901Y124841D03*
D28*
X787591Y87975D03*
X760159Y87975D03*
X787591Y112157D03*
X760159Y112157D03*
X1119505Y659765D03*
X1092073Y659765D03*
D32*
X798875Y94621D03*
X863875Y94621D03*
D33*
X813689Y717935D03*
D34*
X1067689Y717935D03*
X813689Y692535D03*
X1067689Y692535D03*
X813689Y667135D03*
X1067689Y667135D03*
X813689Y641735D03*
X1067689Y641735D03*
X813689Y616335D03*
X1067689Y616335D03*
X813689Y590935D03*
X1067689Y590935D03*
X813689Y565535D03*
X1067689Y565535D03*
X813689Y540135D03*
X1067689Y540135D03*
X813689Y514735D03*
X1067689Y514735D03*
X813689Y489335D03*
X1067689Y489335D03*
X813689Y463935D03*
X1067689Y463935D03*
X813689Y438535D03*
X1067689Y438535D03*
X813689Y413135D03*
X1067689Y413135D03*
X813689Y387735D03*
X1067689Y387735D03*
X813689Y362335D03*
X1067689Y362335D03*
X813689Y336935D03*
X1067689Y336935D03*
X813689Y311535D03*
X1067689Y311535D03*
X813689Y286135D03*
X1067689Y286135D03*
X813689Y260735D03*
X1067689Y260735D03*
D35*
X770445Y290220D03*
X770445Y299720D03*
X770445Y309220D03*
X746189Y309220D03*
X746189Y290220D03*
D36*
X786003Y588204D03*
X786003Y579180D03*
X729702Y605850D03*
X729702Y614874D03*
X678434Y614874D03*
X678434Y605850D03*
X625094Y612334D03*
X625094Y603310D03*
X628904Y553914D03*
X628904Y544890D03*
D37*
X1147445Y724795D03*
X1147445Y706495D03*
X1165733Y715645D03*
X1160145Y447935D03*
X1160145Y429635D03*
X1178433Y438785D03*
X1147705Y661295D03*
X1147705Y642995D03*
X1165993Y652145D03*
X1256367Y595203D03*
X1256367Y576903D03*
X1274655Y586053D03*
X1160145Y384435D03*
X1160145Y366135D03*
X1178433Y375285D03*
X739648Y508502D03*
X739648Y526802D03*
X721360Y517652D03*
X690753Y468477D03*
X690753Y486777D03*
X672465Y477627D03*
D38*
X619090Y396683D03*
X600790Y396683D03*
X609940Y378395D03*
X681488Y244983D03*
X663188Y244983D03*
X672338Y226695D03*
D37*
X621538Y244735D03*
X621538Y226435D03*
X639826Y235585D03*
D39*
X1180211Y766565D03*
X1180211Y771565D03*
X1180211Y776565D03*
X1180211Y781565D03*
X1162177Y781565D03*
X1162177Y776565D03*
X1162177Y771565D03*
X1162177Y766565D03*
D40*
X1171194Y774065D03*
D41*
X1236599Y818028D03*
X1236599Y762528D03*
D14*
X1169924Y800458D03*
X1169924Y814982D03*
D42*
X1182624Y799719D03*
X1182624Y813181D03*
D43*
X1132713Y794385D03*
X1106805Y794385D03*
D44*
X1133729Y748373D03*
X1133729Y776897D03*
X1110869Y748373D03*
X1110869Y776897D03*
D28*
X1133475Y817626D03*
X1106043Y817626D03*
D45*
X758392Y128066D02*
X756356Y128066D01*
X756356Y136002D01*
X758392Y136002D01*
X758392Y128066D01*
X758392Y130628D02*
X756356Y130628D01*
X756356Y133190D02*
X758392Y133190D01*
X758392Y135752D02*
X756356Y135752D01*
X761356Y128066D02*
X763392Y128066D01*
X761356Y128066D02*
X761356Y136002D01*
X763392Y136002D01*
X763392Y128066D01*
X763392Y130628D02*
X761356Y130628D01*
X761356Y133190D02*
X763392Y133190D01*
X763392Y135752D02*
X761356Y135752D01*
X766356Y128066D02*
X768392Y128066D01*
X766356Y128066D02*
X766356Y136002D01*
X768392Y136002D01*
X768392Y128066D01*
X768392Y130628D02*
X766356Y130628D01*
X766356Y133190D02*
X768392Y133190D01*
X768392Y135752D02*
X766356Y135752D01*
X771356Y128066D02*
X773392Y128066D01*
X771356Y128066D02*
X771356Y136002D01*
X773392Y136002D01*
X773392Y128066D01*
X773392Y130628D02*
X771356Y130628D01*
X771356Y133190D02*
X773392Y133190D01*
X773392Y135752D02*
X771356Y135752D01*
X776356Y128066D02*
X778392Y128066D01*
X776356Y128066D02*
X776356Y136002D01*
X778392Y136002D01*
X778392Y128066D01*
X778392Y130628D02*
X776356Y130628D01*
X776356Y133190D02*
X778392Y133190D01*
X778392Y135752D02*
X776356Y135752D01*
X781356Y128066D02*
X783392Y128066D01*
X781356Y128066D02*
X781356Y136002D01*
X783392Y136002D01*
X783392Y128066D01*
X783392Y130628D02*
X781356Y130628D01*
X781356Y133190D02*
X783392Y133190D01*
X783392Y135752D02*
X781356Y135752D01*
X781356Y166766D02*
X783392Y166766D01*
X781356Y166766D02*
X781356Y174702D01*
X783392Y174702D01*
X783392Y166766D01*
X783392Y169328D02*
X781356Y169328D01*
X781356Y171890D02*
X783392Y171890D01*
X783392Y174452D02*
X781356Y174452D01*
X778392Y166766D02*
X776356Y166766D01*
X776356Y174702D01*
X778392Y174702D01*
X778392Y166766D01*
X778392Y169328D02*
X776356Y169328D01*
X776356Y171890D02*
X778392Y171890D01*
X778392Y174452D02*
X776356Y174452D01*
X773392Y166766D02*
X771356Y166766D01*
X771356Y174702D01*
X773392Y174702D01*
X773392Y166766D01*
X773392Y169328D02*
X771356Y169328D01*
X771356Y171890D02*
X773392Y171890D01*
X773392Y174452D02*
X771356Y174452D01*
X768392Y166766D02*
X766356Y166766D01*
X766356Y174702D01*
X768392Y174702D01*
X768392Y166766D01*
X768392Y169328D02*
X766356Y169328D01*
X766356Y171890D02*
X768392Y171890D01*
X768392Y174452D02*
X766356Y174452D01*
X763392Y166766D02*
X761356Y166766D01*
X761356Y174702D01*
X763392Y174702D01*
X763392Y166766D01*
X763392Y169328D02*
X761356Y169328D01*
X761356Y171890D02*
X763392Y171890D01*
X763392Y174452D02*
X761356Y174452D01*
X758392Y166766D02*
X756356Y166766D01*
X756356Y174702D01*
X758392Y174702D01*
X758392Y166766D01*
X758392Y169328D02*
X756356Y169328D01*
X756356Y171890D02*
X758392Y171890D01*
X758392Y174452D02*
X756356Y174452D01*
X754492Y162866D02*
X746556Y162866D01*
X746556Y164902D01*
X754492Y164902D01*
X754492Y162866D01*
X754492Y157866D02*
X746556Y157866D01*
X746556Y159902D01*
X754492Y159902D01*
X754492Y157866D01*
X754492Y152866D02*
X746556Y152866D01*
X746556Y154902D01*
X754492Y154902D01*
X754492Y152866D01*
X754492Y147866D02*
X746556Y147866D01*
X746556Y149902D01*
X754492Y149902D01*
X754492Y147866D01*
X754492Y142866D02*
X746556Y142866D01*
X746556Y144902D01*
X754492Y144902D01*
X754492Y142866D01*
X754492Y137866D02*
X746556Y137866D01*
X746556Y139902D01*
X754492Y139902D01*
X754492Y137866D01*
X785256Y137866D02*
X793192Y137866D01*
X785256Y137866D02*
X785256Y139902D01*
X793192Y139902D01*
X793192Y137866D01*
X793192Y142866D02*
X785256Y142866D01*
X785256Y144902D01*
X793192Y144902D01*
X793192Y142866D01*
X793192Y147866D02*
X785256Y147866D01*
X785256Y149902D01*
X793192Y149902D01*
X793192Y147866D01*
X793192Y152866D02*
X785256Y152866D01*
X785256Y154902D01*
X793192Y154902D01*
X793192Y152866D01*
X793192Y157866D02*
X785256Y157866D01*
X785256Y159902D01*
X793192Y159902D01*
X793192Y157866D01*
X793192Y162866D02*
X785256Y162866D01*
X785256Y164902D01*
X793192Y164902D01*
X793192Y162866D01*
D46*
X769874Y151384D03*
D36*
X1168527Y120837D03*
X1168527Y129861D03*
D47*
X1054495Y184531D03*
X1087995Y184531D03*
D48*
X609522Y802390D03*
X609522Y776990D03*
X609522Y675390D03*
X609522Y649990D03*
X764522Y649990D03*
X764522Y675390D03*
X764522Y802390D03*
D12*
X786257Y598290D03*
X786257Y614814D03*
X801495Y805761D03*
X801495Y822285D03*
D49*
X1098187Y573151D03*
X1098187Y560451D03*
X1098187Y547751D03*
X1098187Y535051D03*
X1098187Y522351D03*
X1098187Y509651D03*
X1098187Y496951D03*
X1098187Y484251D03*
X1195687Y484251D03*
X1195687Y496951D03*
X1195687Y509651D03*
X1195687Y522351D03*
X1195687Y535051D03*
X1195687Y547751D03*
X1195687Y560451D03*
X1195687Y573151D03*
X783445Y355854D03*
X783445Y368554D03*
X783445Y381254D03*
X783445Y393954D03*
X783445Y406654D03*
X783445Y419354D03*
X783445Y432054D03*
X783445Y444754D03*
X685945Y444754D03*
X685945Y432054D03*
X685945Y419354D03*
X685945Y406654D03*
X685945Y393954D03*
X685945Y381254D03*
X685945Y368554D03*
X685945Y355854D03*
D12*
X786857Y338462D03*
X786857Y321938D03*
X685800Y343542D03*
X685800Y327018D03*
D50*
X1110622Y591820D03*
X1094098Y591820D03*
X1194442Y591820D03*
X1177918Y591820D03*
D51*
X742696Y341757D03*
D52*
X1151255Y810253D03*
X951230Y768350D03*
D51*
X1183005Y822325D03*
X1169670Y822960D03*
X1094740Y775970D03*
X1092200Y745490D03*
X1135380Y706120D03*
X1135380Y641350D03*
X1092200Y676910D03*
X1168400Y622300D03*
X1167130Y591820D03*
X1211580Y612140D03*
X1250950Y567690D03*
X1243330Y551180D03*
X1195070Y474980D03*
X1148080Y425450D03*
X1093470Y443230D03*
X1093470Y381000D03*
X1148080Y365760D03*
X1182370Y406400D03*
X1176020Y320040D03*
X1200150Y170180D03*
X1209040Y170180D03*
X1217930Y170180D03*
X1226820Y170180D03*
X1200150Y180340D03*
X1209040Y180340D03*
X1217930Y180340D03*
X1226820Y180340D03*
X1156970Y124460D03*
X869950Y81280D03*
X820420Y123825D03*
X876935Y172720D03*
X741680Y198120D03*
X734695Y188595D03*
X608330Y226060D03*
X652780Y250190D03*
X744220Y260350D03*
X784860Y312420D03*
X793750Y312420D03*
X685800Y317500D03*
X599440Y232410D03*
X643890Y250190D03*
X670560Y444500D03*
X640080Y386080D03*
X588010Y400685D03*
X586204Y428625D03*
X701675Y487045D03*
X694690Y457835D03*
X744220Y535940D03*
X708660Y558800D03*
X817880Y821690D03*
X876935Y164056D03*
D52*
X609600Y819778D03*
D51*
X749145Y83185D03*
X1195705Y774700D03*
X1170940Y757555D03*
X742950Y497205D03*
X744220Y461645D03*
X797433Y170053D03*
X766559Y342607D03*
X964184Y572897D03*
X742315Y484505D03*
X708660Y495300D03*
D53*
X723900Y165100D03*
X705485Y121285D03*
D51*
X758825Y198120D03*
X749935Y109855D03*
X1095375Y786765D03*
X1153383Y767520D03*
D52*
X1159510Y742950D03*
D51*
X1153795Y778510D03*
X1095375Y799684D03*
X718185Y596011D03*
X721487Y610870D03*
X690118Y607568D03*
X775843Y585597D03*
X638937Y548132D03*
X769366Y425958D03*
X797433Y394589D03*
X744601Y411099D03*
X731393Y424307D03*
M02*
